<svg width="866" height="683" viewBox="0 0 866 683" fill="none" xmlns="http://www.w3.org/2000/svg">
    <path
        d="M571.791 91.4387C575.996 65.4158 558.31 40.9109 532.287 36.7054C506.264 32.4999 481.759 50.1865 477.553 76.2094C473.348 102.232 491.034 126.737 517.057 130.943C543.08 135.148 567.585 117.462 571.791 91.4387Z"
        fill="#EBEBEB" />
    <path
        d="M572.011 94.1508C576.059 69.4005 559.277 46.0544 534.527 42.0058C509.777 37.9572 486.431 54.7392 482.382 79.4896C478.333 104.24 495.115 127.586 519.866 131.635C544.616 135.683 567.962 118.901 572.011 94.1508Z"
        fill="#DBDBDB" />
    <path
        d="M545.897 125.35C567.747 116.419 578.221 91.4669 569.291 69.6167C560.361 47.7665 535.408 37.2928 513.558 46.2231C491.708 55.1533 481.234 80.1058 490.164 101.956C499.095 123.806 524.047 134.28 545.897 125.35Z"
        fill="white" />
    <path d="M527.76 47.36H526.67V53.82H527.76V47.36Z" fill="#EBEBEB" />
    <path d="M507.975 52.4201L507.031 52.9649L510.26 58.56L511.204 58.0152L507.975 52.4201Z"
        fill="#EBEBEB" />
    <path d="M493.864 64.6279L493.32 65.5729L498.938 68.8021L499.482 67.8571L493.864 64.6279Z"
        fill="#EBEBEB" />
    <path d="M494.23 86.28H487.77V87.37H494.23V86.28Z" fill="#EBEBEB" />
    <path d="M498.387 102.881L492.793 106.112L493.338 107.056L498.932 103.825L498.387 102.881Z"
        fill="#EBEBEB" />
    <path d="M510.248 115.113L507.021 120.709L507.965 121.254L511.192 115.658L510.248 115.113Z"
        fill="#EBEBEB" />
    <path d="M527.76 119.83H526.67V126.29H527.76V119.83Z" fill="#EBEBEB" />
    <path d="M544.213 115.18L543.269 115.725L546.499 121.32L547.443 120.775L544.213 115.18Z"
        fill="#EBEBEB" />
    <path d="M556.062 102.858L555.517 103.802L561.094 107.022L561.639 106.078L556.062 102.858Z"
        fill="#EBEBEB" />
    <path d="M566.68 86.28H560.22V87.37H566.68V86.28Z" fill="#EBEBEB" />
    <path d="M561.098 66.6096L555.521 69.8296L556.066 70.7736L561.643 67.5536L561.098 66.6096Z"
        fill="#EBEBEB" />
    <path d="M546.516 52.405L543.289 58.0012L544.234 58.5457L547.461 52.9495L546.516 52.405Z"
        fill="#EBEBEB" />
    <path d="M533.52 73.1633L514.855 109.859L515.827 110.353L534.492 73.6575L533.52 73.1633Z"
        fill="#EBEBEB" />
    <path d="M525.039 72.198L523.627 72.4807L531.585 112.232L532.997 111.949L525.039 72.198Z"
        fill="#DBDBDB" />
    <path
        d="M387.43 393.86H81.2001V40.22H387.43V393.86ZM88.3201 386.73H380.32V47.36H88.3201V386.73Z"
        fill="#EBEBEB" />
    <path d="M235.1 49.23H227.97V390.3H235.1V49.23Z" fill="#EBEBEB" />
    <path d="M393.93 54.65H74.73V64.59H393.93V54.65Z" fill="#EBEBEB" />
    <path d="M393.93 65.84H74.73V75.78H393.93V65.84Z" fill="#EBEBEB" />
    <path d="M393.93 77H74.73V86.94H393.93V77Z" fill="#EBEBEB" />
    <path d="M393.93 88.19H74.73V98.13H393.93V88.19Z" fill="#EBEBEB" />
    <path d="M393.93 99.37H74.73V109.31H393.93V99.37Z" fill="#EBEBEB" />
    <path d="M393.93 110.54H74.73V120.48H393.93V110.54Z" fill="#EBEBEB" />
    <path d="M393.93 121.72H74.73V131.66H393.93V121.72Z" fill="#EBEBEB" />
    <path d="M393.93 132.9H74.73V142.84H393.93V132.9Z" fill="#EBEBEB" />
    <path d="M393.93 144.07H74.73V154.01H393.93V144.07Z" fill="#EBEBEB" />
    <path d="M372.73 52.64H370.95V281.65H372.73V52.64Z" fill="#263238" />
    <path d="M375 289.96H368.67L370.25 280.86H373.41L375 289.96Z" fill="#263238" />
    <path d="M379.15 52.64H377.37V383.93H379.15V52.64Z" fill="#263238" />
    <path d="M381.42 390.62H375.11L376.68 381.52H379.85L381.42 390.62Z" fill="#263238" />
    <path d="M404.98 38.83H63.65V59.61H404.98V38.83Z" fill="#DBDBDB" />
    <path d="M802.11 120.67H609.68V362.99H802.11V120.67Z" fill="#EBEBEB" />
    <path d="M777.63 170.74H633.52V175.32H777.63V170.74Z" fill="#DBDBDB" />
    <path d="M755.54 180.33H633.52V184.91H755.54V180.33Z" fill="#DBDBDB" />
    <path d="M726.58 189.91H633.52V194.49H726.58V189.91Z" fill="#DBDBDB" />
    <path d="M772.6 199.51H633.52V204.09H772.6V199.51Z" fill="#DBDBDB" />
    <path d="M760.77 209.09H633.52V213.67H760.77V209.09Z" fill="#DBDBDB" />
    <path d="M765.57 228.26H633.52V232.84H765.57V228.26Z" fill="#DBDBDB" />
    <path d="M684.11 237.86H633.52V242.44H684.11V237.86Z" fill="#DBDBDB" />
    <path d="M735.53 247.44H633.52V252.02H735.53V247.44Z" fill="#DBDBDB" />
    <path d="M772.6 257.03H633.52V261.61H772.6V257.03Z" fill="#DBDBDB" />
    <path d="M753.44 266.61H633.52V271.19H753.44V266.61Z" fill="#DBDBDB" />
    <path d="M763.46 285.79H633.52V290.37H763.46V285.79Z" fill="#DBDBDB" />
    <path d="M712.18 295.38H633.52V299.96H712.18V295.38Z" fill="#DBDBDB" />
    <path d="M712.18 324.4H633.52V328.98H712.18V324.4Z" fill="#DBDBDB" />
    <path
        d="M765.47 343.56C773.517 343.56 780.04 337.037 780.04 328.99C780.04 320.943 773.517 314.42 765.47 314.42C757.423 314.42 750.9 320.943 750.9 328.99C750.9 337.037 757.423 343.56 765.47 343.56Z"
        fill="#D1D3D4" />
    <path d="M440.93 592.43H794.3L801.65 447.45H433.58L440.93 592.43Z" fill="#EBEBEB" />
    <path
        d="M777.55 513.82H629.8L627 463.48H780.78L777.55 513.82ZM631.5 512H775.87L778.87 465.24H628.93L631.5 512Z"
        fill="#DBDBDB" />
    <path
        d="M774.82 571.72H635.6L633.34 526.29H777.66L774.82 571.72ZM637.3 569.93H773.14L775.77 528.07H635.21L637.3 569.93Z"
        fill="#DBDBDB" />
    <path
        d="M717.9 494.07H693.07L691.52 481.93H719.52L717.9 494.07ZM694.71 492.29H716.4L717.51 483.71H693.61L694.71 492.29Z"
        fill="#DBDBDB" />
    <path
        d="M717.9 555.08H693.07L691.52 542.93H719.52L717.9 555.08ZM694.71 553.29H716.4L717.51 544.71H693.61L694.71 553.29Z"
        fill="#DBDBDB" />
    <path
        d="M603.78 513.82H456L453.24 463.48H607L603.78 513.82ZM457.78 512.03H602.1L605.05 465.27H455.21L457.78 512.03Z"
        fill="#DBDBDB" />
    <path
        d="M601.05 571.72H461.83L459.57 526.29H603.89L601.05 571.72ZM463.53 569.93H599.37L602 528.07H461.44L463.53 569.93Z"
        fill="#DBDBDB" />
    <path
        d="M544.13 494.07H519.3L517.75 481.93H545.75L544.13 494.07ZM520.94 492.29H542.62L543.72 483.71H519.82L520.94 492.29Z"
        fill="#DBDBDB" />
    <path
        d="M544.13 555.08H519.3L517.75 542.93H545.75L544.13 555.08ZM520.94 553.29H542.62L543.72 544.71H519.82L520.94 553.29Z"
        fill="#DBDBDB" />
    <path d="M472.62 592.43L470.39 608.23L465.93 639.96H457.21V592.43H472.62Z" fill="#EBEBEB" />
    <path d="M472.62 592.43L470.39 608.23H457.21V592.43H472.62Z" fill="#DBDBDB" />
    <path d="M762.6 592.43L764.82 608.23L769.29 639.96H778.01V592.43H762.6Z" fill="#EBEBEB" />
    <path d="M762.6 592.43L764.82 608.23H778.01V592.43H762.6Z" fill="#DBDBDB" />
    <path
        d="M167.13 132.5C167.13 132.5 173.88 573.86 277 600.81L579.55 521.47L531.55 65.72C531.55 65.72 238.6 116.1 167.13 132.5Z"
        fill="#0BCEAF" />
    <path opacity="0.5"
        d="M167.13 132.5C167.13 132.5 173.88 573.86 277 600.81L579.55 521.47L531.55 65.72C531.55 65.72 238.6 116.1 167.13 132.5Z"
        fill="#F1F2F2" />
    <g opacity="0.5">
        <path
            d="M246.8 389.1C246.277 389.105 245.772 388.912 245.385 388.561C244.997 388.21 244.756 387.726 244.71 387.206C244.663 386.685 244.814 386.166 245.133 385.752C245.452 385.337 245.915 385.058 246.43 384.97L504.83 338.64C505.359 338.573 505.894 338.712 506.323 339.028C506.753 339.344 507.045 339.813 507.139 340.338C507.232 340.863 507.121 341.404 506.827 341.849C506.533 342.294 506.08 342.61 505.56 342.73L247.17 389.06C247.049 389.088 246.924 389.101 246.8 389.1V389.1Z"
            fill="#F1F2F2" />
    </g>
    <g opacity="0.5">
        <path
            d="M232.54 301.78C232.021 301.786 231.519 301.598 231.132 301.254C230.745 300.909 230.5 300.432 230.446 299.916C230.393 299.4 230.533 298.883 230.841 298.466C231.149 298.048 231.601 297.761 232.11 297.66C233.75 297.31 397.52 262.8 511.3 255.74C511.577 255.714 511.857 255.744 512.122 255.829C512.387 255.913 512.633 256.05 512.845 256.231C513.056 256.412 513.229 256.633 513.353 256.883C513.478 257.132 513.551 257.403 513.568 257.681C513.585 257.959 513.547 258.237 513.455 258.5C513.362 258.763 513.218 259.004 513.031 259.21C512.844 259.416 512.617 259.583 512.365 259.699C512.112 259.816 511.838 259.881 511.56 259.89C398.08 266.89 234.61 301.38 232.97 301.73C232.829 301.761 232.685 301.778 232.54 301.78V301.78Z"
            fill="#F1F2F2" />
    </g>
    <g opacity="0.5">
        <path
            d="M235.21 326.72C234.667 326.748 234.135 326.562 233.729 326.201C233.323 325.841 233.074 325.335 233.037 324.793C233.001 324.251 233.179 323.716 233.533 323.304C233.887 322.892 234.389 322.635 234.93 322.59L507.58 285.16C507.853 285.117 508.132 285.129 508.401 285.195C508.669 285.261 508.922 285.379 509.144 285.544C509.366 285.709 509.553 285.916 509.694 286.154C509.835 286.392 509.927 286.656 509.965 286.93C510.003 287.203 509.985 287.482 509.914 287.749C509.843 288.016 509.72 288.267 509.551 288.486C509.382 288.705 509.171 288.888 508.93 289.024C508.69 289.16 508.425 289.247 508.15 289.28L235.5 326.7C235.404 326.717 235.307 326.723 235.21 326.72V326.72Z"
            fill="#F1F2F2" />
    </g>
    <g opacity="0.5">
        <path
            d="M237.89 357.91C237.362 357.913 236.853 357.716 236.465 357.357C236.078 356.999 235.841 356.507 235.803 355.98C235.765 355.454 235.928 354.933 236.26 354.522C236.592 354.112 237.067 353.843 237.59 353.77L505.79 315.46C506.318 315.417 506.842 315.577 507.256 315.907C507.67 316.238 507.942 316.713 508.017 317.238C508.093 317.762 507.965 318.295 507.661 318.728C507.357 319.162 506.899 319.463 506.38 319.57L238.18 357.89L237.89 357.91Z"
            fill="#F1F2F2" />
    </g>
    <g opacity="0.5">
        <path
            d="M253 419.39C252.487 419.381 251.994 419.183 251.618 418.834C251.242 418.484 251.009 418.008 250.963 417.496C250.917 416.985 251.062 416.475 251.37 416.064C251.677 415.653 252.126 415.37 252.63 415.27L418.39 385C418.925 384.918 419.47 385.048 419.911 385.362C420.352 385.676 420.653 386.149 420.751 386.681C420.848 387.213 420.735 387.762 420.434 388.212C420.133 388.662 419.669 388.977 419.14 389.09L253.41 419.39C253.274 419.402 253.136 419.402 253 419.39V419.39Z"
            fill="#F1F2F2" />
    </g>
    <g opacity="0.5">
        <path
            d="M228.09 258.12C227.572 258.126 227.069 257.938 226.682 257.594C226.295 257.249 226.05 256.772 225.996 256.256C225.943 255.74 226.083 255.223 226.391 254.806C226.699 254.388 227.151 254.101 227.66 254C229.49 253.62 411.56 215.6 505.1 211.19H505.2C505.727 211.213 506.226 211.436 506.595 211.814C506.964 212.191 507.176 212.695 507.188 213.223C507.199 213.751 507.009 214.263 506.657 214.656C506.305 215.049 505.816 215.294 505.29 215.34C412.09 219.74 230.29 257.69 228.51 258.07C228.372 258.101 228.231 258.118 228.09 258.12V258.12Z"
            fill="#F1F2F2" />
    </g>
    <path
        d="M610 556.62L277 600.81C305.12 585.58 281.59 546.16 281.59 546.16L616.59 490.37C616.59 490.37 639.06 535.55 610 556.62Z"
        fill="#0BCEAF" />
    <path opacity="0.25"
        d="M610 556.62L277 600.81C305.12 585.58 281.59 546.16 281.59 546.16L616.59 490.37C616.59 490.37 639.06 535.55 610 556.62Z"
        fill="#F1F2F2" />
    <g opacity="0.5">
        <path
            d="M224.52 229.6C224.008 229.599 223.515 229.41 223.134 229.068C222.753 228.726 222.511 228.255 222.456 227.746C222.4 227.238 222.534 226.726 222.832 226.31C223.13 225.893 223.57 225.602 224.07 225.49C225.84 225.1 401.6 186.23 479.33 185.35C479.882 185.35 480.411 185.569 480.801 185.959C481.191 186.349 481.41 186.878 481.41 187.43C481.41 187.982 481.191 188.511 480.801 188.901C480.411 189.291 479.882 189.51 479.33 189.51C402.03 190.39 226.69 229.16 224.92 229.51C224.791 229.556 224.656 229.586 224.52 229.6Z"
            fill="#F1F2F2" />
    </g>
    <path
        d="M670.48 267.84C670.183 267.839 669.892 267.756 669.64 267.6C669.294 267.376 669.049 267.026 668.96 266.623C668.87 266.221 668.942 265.8 669.16 265.45C678.02 251.52 678.7 186.31 678.72 183.5C678.37 180.88 670.78 177.4 665.72 175.85C665.523 175.79 665.34 175.692 665.181 175.562C665.021 175.431 664.89 175.27 664.793 175.089C664.696 174.907 664.635 174.709 664.615 174.504C664.595 174.299 664.615 174.092 664.675 173.895C664.735 173.698 664.833 173.515 664.963 173.356C665.094 173.196 665.255 173.065 665.436 172.968C665.618 172.871 665.816 172.81 666.021 172.79C666.226 172.77 666.433 172.79 666.63 172.85C669.08 173.59 681.32 177.6 681.83 183.26C681.835 183.31 681.835 183.36 681.83 183.41C681.83 186.21 681.27 252.19 671.78 267.1C671.644 267.324 671.453 267.509 671.226 267.638C670.998 267.768 670.742 267.837 670.48 267.84Z"
        fill="#0BCEAF" />
    <path
        d="M597.41 283.66C597.41 283.66 624.04 176.66 637.08 158.66C637.08 158.66 661.08 161.1 671.37 169.57C671.37 169.57 641.52 321.04 611.23 385.19L579.15 311.68L597.41 283.66Z"
        fill="#0BCEAF" />
    <path opacity="0.5"
        d="M611.67 227.52C611.67 227.52 642.41 229.75 660.67 164.26C660.67 164.26 667.35 166.49 671.36 169.61C671.36 169.61 648.64 296.13 611.22 385.23L595.22 326.43L602.79 263.61L611.67 227.52Z"
        fill="#F1F2F2" />
    <path
        d="M637.08 158.7L640.73 149.01C640.973 148.363 641.416 147.811 641.996 147.435C642.575 147.059 643.26 146.878 643.95 146.92C649.78 147.3 664.76 148.86 672.22 154.97C672.649 155.33 672.976 155.797 673.167 156.324C673.359 156.851 673.408 157.418 673.31 157.97L671.37 169.61C671.37 169.61 666.05 163.39 637.08 158.7Z"
        fill="#2F2E41" />
    <path d="M461.68 334.15C461.68 334.15 461.79 325.24 468.68 333.26L461.68 334.15Z" fill="#F7A48B" />
    <path
        d="M452.13 361L453.69 353.8L456.82 356.93C455.916 357.908 454.944 358.821 453.91 359.66C453.3 360.14 452.7 360.58 452.13 361Z"
        fill="#F7A48B" />
    <path
        d="M441.49 353.47C441.49 353.47 450.57 359.1 460.89 356.91C460.89 356.91 468.4 351.91 466.52 338.77L456.2 336L439 342.21L441.49 353.47Z"
        fill="#F7A48B" />
    <path
        d="M358.72 606.52L370.72 573.2C370.72 573.2 374.43 566.41 378.72 520.13C378.72 520.13 384.89 451.94 383.04 424.48C383.04 424.48 378.1 427.87 360.51 427.87L351.56 601.58L358.72 606.52Z"
        fill="#2F2E41" />
    <path opacity="0.2"
        d="M376.92 479.09L368.29 555.3L363.04 595.1L358.72 606.52L356.87 578.13L367.98 484.64L376.92 479.09Z"
        fill="black" />
    <path
        d="M325.09 425.4C325.09 425.4 331.15 506.83 327.92 539.23C327.746 541.001 327.435 542.757 326.99 544.48C324.16 555.48 312.06 606.35 323.85 627.19C332.57 628.594 341.48 628.282 350.08 626.27L361.81 625.34C361.81 625.34 355.63 612.07 361.5 587.34C361.5 587.34 366.13 561.11 366.74 545.07L371.68 510.82L379.68 461.45L383.08 424.45C383.08 424.45 377.23 431.57 325.09 425.4Z"
        fill="#2F2E41" />
    <path opacity="0.2"
        d="M325.09 425.4L328.17 477.85C328.17 477.85 349.77 472.92 362.73 450.08C362.73 450.08 377.23 430.65 383.4 430.65L383.1 424.48C383.1 424.48 374.46 431.88 325.09 425.4Z"
        fill="black" />
    <path
        d="M327.88 240C327.88 240 304.94 253.81 306.27 267.4C306.27 267.4 301.39 317.25 310.68 358.16C311.157 360.211 311.362 362.316 311.29 364.42C310.91 374.15 309.29 403.02 303.6 412.42C303.6 412.42 299.76 429.22 364.98 427.9C374.626 427.748 384.051 424.983 392.25 419.9C393.584 419.071 394.87 418.167 396.1 417.19C396.72 416.692 397.22 416.061 397.566 415.345C397.912 414.629 398.095 413.845 398.1 413.05C398.28 401.57 398.63 352.45 392.62 323.48C391.847 319.784 391.306 316.043 391 312.28C389.93 298.47 386.33 264.28 376.47 251.58L327.88 240Z"
        fill="#0BCEAF" />
    <path
        d="M570.9 611.94C570.9 611.94 558.77 628.65 543.07 629.77C543.07 629.77 530.49 631.43 534.86 638.82C534.86 638.82 590.86 636.75 606.05 633.37C606.05 633.37 612.84 624.37 602.05 619.76L570.9 611.94Z"
        fill="#0BCEAF" />
    <path
        d="M534.86 638.82C534.86 638.82 532.48 643.22 545.12 642.32L605.94 637.22L606.05 633.37L534.86 638.82Z"
        fill="#2F2E41" />
    <path opacity="0.2"
        d="M534.86 638.82C534.86 638.82 532.48 643.22 545.12 642.32L605.94 637.22L606.05 633.37L534.86 638.82Z"
        fill="black" />
    <path opacity="0.4"
        d="M565 618.21C565 618.21 595 620.43 585.22 633.83C585.22 633.83 598.5 634.68 606.1 633.37C606.1 633.37 612.89 624.37 602.1 619.76L570.91 611.94L565 618.21Z"
        fill="black" />
    <path
        d="M528.82 409.32C528.82 409.32 529.54 468.03 528.49 480.62C528.49 480.62 524.3 505.26 534.79 519.94L556.28 563.94L551.56 410.84L538.46 371L523.77 373.62C523.77 373.62 521.29 399.9 528.82 409.32Z"
        fill="#2F2E41" />
    <path opacity="0.4"
        d="M529.55 442.56C529.55 442.56 537.87 474.63 540.84 531.96C540.84 531.96 550.64 552.96 556.28 563.96L551.56 410.86L538.46 371L523.77 373.62C523.77 373.62 521.56 397.15 528.82 409.29L529.55 442.56Z"
        fill="black" />
    <path
        d="M534.79 405.11C534.79 405.11 536.73 441 542 459.59C543.683 465.575 544.398 471.79 544.12 478C543.38 494.66 542.93 525.43 548.94 535.2C548.94 535.2 554.79 556.06 554.2 562.6C554.454 566.784 555.175 570.926 556.35 574.95C557.893 579.577 558.785 584.397 559 589.27L559.85 613.34C559.85 613.34 571.73 632.05 594.01 626.11C594.01 626.11 603.89 625.38 602.16 617.64C601.789 616.104 600.971 614.712 599.81 613.64L599.38 613.22C595.557 609.266 593.373 604.01 593.27 598.51C593.08 591.02 592.98 575.11 595.2 565.8C595.2 565.8 598.76 536.1 594.31 516.8C594.31 516.8 591.93 460.66 594.9 450.27C594.9 450.27 606.19 422.05 602.33 403.64L534.79 405.11Z"
        fill="#2F2E41" />
    <path opacity="0.2"
        d="M539.05 445.23C539.05 445.23 540.54 428.89 562.22 431.86L599.64 434.24C599.64 434.24 604.99 414.04 602.32 403.65L534.79 405.11C534.79 405.11 535.49 428.3 539.05 445.23Z"
        fill="black" />
    <path opacity="0.2"
        d="M341.92 297.91C341.92 297.91 347.48 372.98 374.44 405.73C374.44 405.73 383.68 416.23 396.1 417.22C387.112 423.955 376.23 427.689 365 427.89C365 427.89 303.4 430.01 303.62 412.41C303.62 412.41 312.22 395.25 310.7 358.16L323.7 324.42L341.92 297.91Z"
        fill="black" />
    <path opacity="0.2"
        d="M382.9 301.48C384.977 304.186 386.685 307.155 387.98 310.31C389.335 313.435 390.465 316.653 391.36 319.94C392.27 323.231 393.001 326.57 393.55 329.94C393.82 331.62 394.04 333.3 394.27 334.94C394.5 336.58 394.6 338.32 394.71 340.01C394.36 338.35 394.08 336.68 393.77 335.01L392.77 330.01C392.02 326.72 391.3 323.42 390.36 320.18C389.42 316.94 388.44 313.72 387.24 310.57C386.64 308.99 386 307.43 385.24 305.91C384.567 304.379 383.785 302.899 382.9 301.48V301.48Z"
        fill="black" />
    <path opacity="0.05"
        d="M327.88 240L320.98 244.68C320.98 244.68 348.82 281.43 381.57 297.68C381.57 297.68 360.18 281.87 329.22 246.23C328.564 245.348 328.105 244.335 327.874 243.26C327.643 242.186 327.645 241.074 327.88 240V240Z"
        fill="black" />
    <path
        d="M392.61 323.51C392.61 323.51 420.84 335.32 444.93 335.64C444.93 335.64 443.68 356.64 437.11 357.54C437.11 357.54 409.89 361.6 396.11 355.66C396.13 355.66 395.35 335.79 392.61 323.51Z"
        fill="#0BCEAF" />
    <path opacity="0.2"
        d="M404.89 327.5C408.005 334.788 413.678 340.685 420.84 344.08C420.84 344.08 446.84 356.6 429.6 358.16C429.6 358.16 411.77 361.6 396.13 355.66C396.13 355.66 395.03 335.79 392.61 323.51C396.624 325.073 400.724 326.405 404.89 327.5V327.5Z"
        fill="black" />
    <path
        d="M444.62 337.83C444.62 337.83 462.35 331.99 468.69 333.26C469.01 333.33 469.305 333.487 469.541 333.714C469.777 333.941 469.945 334.23 470.027 334.547C470.109 334.864 470.101 335.198 470.004 335.511C469.908 335.824 469.726 336.104 469.48 336.32C464.64 340.63 448.8 353.51 444.31 341.89L444.62 337.83Z"
        fill="#F9B499" />
    <path
        d="M452.13 361C452.13 361 462.99 353 465.18 339.88L469.48 336.34L475.19 338.34C476.082 338.65 477.016 338.822 477.96 338.85L487.8 339.12C487.8 339.12 487.35 348.42 491.24 356.01C491.24 356.01 477.47 361.96 472.78 361.96C472.78 361.96 465.27 364.77 462.14 361.33C462.14 361.29 456.2 362.54 452.13 361Z"
        fill="#F9B499" />
    <path
        d="M462.14 361.29C462.558 360.112 463.155 359.006 463.91 358.01C464.636 356.993 465.517 356.095 466.52 355.35C465.65 357.704 464.131 359.763 462.14 361.29V361.29Z"
        fill="#F7A48B" />
    <path
        d="M472.78 361.92C472.814 361.206 473.042 360.514 473.44 359.92C473.805 359.306 474.335 358.807 474.97 358.48C474.92 359.19 474.693 359.877 474.311 360.478C473.929 361.078 473.402 361.574 472.78 361.92V361.92Z"
        fill="#F7A48B" />
    <path
        d="M544.19 249.21C544.19 249.21 524.38 284.79 524.78 301.78C524.78 301.78 518.66 387.78 520.56 413.78C520.602 414.178 520.763 414.554 521.022 414.86C521.281 415.166 521.625 415.387 522.011 415.495C522.396 415.602 522.806 415.592 523.185 415.464C523.565 415.337 523.897 415.099 524.14 414.78C524.215 414.665 524.282 414.544 524.34 414.42C525.189 412.743 526.406 411.28 527.9 410.14L528.82 409.4C528.82 409.4 525.18 372.13 530 379L538.89 421.05C538.89 421.05 537.68 427.11 546.17 425.05C546.17 425.05 583.77 428.69 602.37 412.92L618.09 406.52C618.887 406.198 619.612 405.722 620.225 405.119C620.838 404.517 621.325 403.799 621.661 403.008C621.996 402.217 622.172 401.367 622.179 400.508C622.186 399.649 622.023 398.796 621.7 398L608.88 367.29C608.88 367.29 602 344.65 604.43 332.93C604.43 332.93 618.18 258.53 580.17 220.12C580.17 220.12 583.41 225.38 578.96 229.83C578.96 229.83 558.46 254.9 548.75 263.39C548.75 263.37 544.19 269.83 544.19 249.21Z"
        fill="#0BCEAF" />
    <path opacity="0.2"
        d="M529.63 374.55C529.42 363.94 529.32 353.32 529.23 342.7L529.11 310.86C529.071 300.177 530.666 289.551 533.84 279.35C537.173 269.257 540.623 259.21 544.19 249.21L539.43 264.41C537.83 269.47 536.17 274.53 534.61 279.58C531.577 289.727 530.074 300.27 530.15 310.86L530 342.7C530 353.32 529.85 363.94 529.63 374.55Z"
        fill="black" />
    <path opacity="0.2"
        d="M523.16 325.63L523.97 317.14C523.97 317.14 549 308.65 566.83 263L580.58 276.75L598 288C598 288 600 308.62 588.7 326.41C588.7 326.41 586.28 332.88 590.32 335.71C590.32 335.71 597.6 348.65 582.23 353.9C582.23 353.9 576.17 364.41 548.67 360.37C548.67 360.37 528.46 352.69 521.58 358.37L523.16 325.63Z"
        fill="black" />
    <path
        d="M327.56 418.61L328.17 440.52C327.881 442.145 328.151 443.821 328.935 445.273C329.719 446.726 330.972 447.87 332.49 448.52C332.49 448.52 336.31 455.67 340.28 459.03C340.686 459.358 341.178 459.562 341.697 459.617C342.216 459.672 342.74 459.576 343.206 459.34C343.671 459.105 344.059 458.74 344.323 458.289C344.586 457.838 344.714 457.321 344.69 456.8L344.53 452.53C344.53 452.53 346.34 455.71 348.22 454.09C348.528 453.803 348.766 453.449 348.915 453.055C349.064 452.662 349.121 452.239 349.08 451.82L348.23 440.82C348.23 440.82 355 438.36 350.7 426L346 415.11C346 415.11 344.57 415.19 335.32 416.75C335.34 416.75 330.33 416.76 327.56 418.61Z"
        fill="#F9B499" />
    <path d="M332.296 441.755L331.99 448.538L333.029 448.585L333.335 441.802L332.296 441.755Z"
        fill="#F7A48B" />
    <path d="M338.432 444.499L338.129 457.456L339.168 457.48L339.471 444.524L338.432 444.499Z"
        fill="#F7A48B" />
    <path d="M344.737 445.436L343.698 445.481L344.006 452.574L345.045 452.529L344.737 445.436Z"
        fill="#F7A48B" />
    <path d="M347.818 431.526L346.783 431.63L347.709 440.884L348.744 440.78L347.818 431.526Z"
        fill="#F7A48B" />
    <path
        d="M323.85 627.19C323.85 627.19 319.98 631.6 321.06 646.8L389.06 643.54C389.06 643.54 393.76 638.48 383.63 636.67C383.63 636.67 366.68 631.02 361.77 625.34C361.77 625.34 352.64 625.64 350.04 626.27C350.08 626.27 335.69 630 323.85 627.19Z"
        fill="#0BCEAF" />
    <path opacity="0.2"
        d="M330.47 628.34C330.47 628.34 319.25 633.41 334.09 637.03C334.09 637.03 361.23 638.11 366.66 641.73C367.75 642.46 390.18 641.01 390.18 641.01L394.18 642.82L375.71 659.1L316 653.31L310.21 632L320.34 624.76L323.85 627.23L330.47 628.34Z"
        fill="black" />
    <path
        d="M559.84 613.34C559.84 613.34 546.55 629.14 530.84 629.14C530.84 629.14 518.17 629.91 522.01 637.59C522.01 637.59 578.01 639.51 593.4 637.21C593.4 637.21 599.24 632.28 594.02 626.11L559.84 613.34Z"
        fill="#0BCEAF" />
    <path d="M522 637.59C522 637.59 519.31 641.81 532 641.81L593 641.04L593.38 637.21L522 637.59Z"
        fill="#2F2E41" />
    <path opacity="0.2"
        d="M553.75 619.23C553.75 619.23 583.35 624.58 572.6 637.23C572.6 637.23 586.72 637.29 593.38 637.23C593.38 637.23 599.23 632.35 594 626.13L559.84 613.36C559.03 614.26 558.14 615.19 557.17 616.13C556 617.26 554.85 618.29 553.75 619.23Z"
        fill="black" />
    <path opacity="0.5"
        d="M463.76 503.74C486.15 503.74 504.3 485.59 504.3 463.2C504.3 440.81 486.15 422.66 463.76 422.66C441.37 422.66 423.22 440.81 423.22 463.2C423.22 485.59 441.37 503.74 463.76 503.74Z"
        fill="#F1F2F2" />
    <path
        d="M469.32 484.94C468.149 484.938 466.997 484.642 465.97 484.08L434.45 466.81C433.847 466.48 433.399 465.923 433.206 465.263C433.013 464.603 433.09 463.893 433.42 463.29C433.75 462.687 434.306 462.239 434.967 462.046C435.627 461.853 436.337 461.93 436.94 462.26L468.46 479.52C468.721 479.663 469.013 479.737 469.31 479.737C469.607 479.737 469.899 479.663 470.16 479.52C470.425 479.384 470.651 479.182 470.816 478.933C470.98 478.684 471.078 478.397 471.1 478.1L477.1 407.57C477.294 405.138 478.401 402.869 480.198 401.218C481.995 399.567 484.35 398.657 486.79 398.67H490.05C490.739 398.67 491.401 398.944 491.888 399.432C492.376 399.919 492.65 400.58 492.65 401.27C492.65 401.96 492.376 402.621 491.888 403.109C491.401 403.596 490.739 403.87 490.05 403.87H486.79C485.655 403.864 484.559 404.287 483.722 405.055C482.886 405.823 482.371 406.878 482.28 408.01L476.28 478.54C476.129 480.291 475.326 481.921 474.029 483.106C472.732 484.292 471.037 484.946 469.28 484.94H469.32Z"
        fill="#0BCEAF" />
    <path
        d="M542.79 226.66C542.79 226.66 547.11 231.23 549.65 243.66L573.79 220.03L562.11 203.26L542.79 226.66Z"
        fill="#F9B499" />
    <path
        d="M544.19 249.21C544.19 249.21 543.34 268.86 549.04 263.77C549.04 263.77 571.67 241.34 578.96 229.77C578.96 229.77 583.96 224.69 580.17 220.06C580.17 220.06 576.33 211.63 572.78 218.49C572.78 218.53 546.09 240.77 544.19 249.21Z"
        fill="#0BCEAF" />
    <path opacity="0.4"
        d="M544.19 249.21C544.19 249.21 543.34 268.86 549.04 263.77C549.04 263.77 571.67 241.34 578.96 229.77C578.96 229.77 583.96 224.69 580.17 220.06C580.17 220.06 576.33 211.63 572.78 218.49C572.78 218.53 546.09 240.77 544.19 249.21Z"
        fill="white" />
    <path
        d="M549.3 240.67C549.3 240.67 545.64 230.25 542.79 226.67L561.11 203C561.11 203 561.77 224.41 549.3 240.67Z"
        fill="#F7A48B" />
    <path
        d="M540.38 229.71C551.398 229.71 560.33 215.432 560.33 197.82C560.33 180.208 551.398 165.93 540.38 165.93C529.362 165.93 520.43 180.208 520.43 197.82C520.43 215.432 529.362 229.71 540.38 229.71Z"
        fill="#F9B499" />
    <path
        d="M565.93 267.59C574.74 244 584.68 243.72 591.68 248C594.602 249.851 596.995 252.426 598.628 255.474C600.261 258.523 601.078 261.942 601 265.4C600.69 307.48 575.68 337.34 575.68 337.34C567.45 356.15 552.95 352.24 552.95 352.24H530.26L491.26 355.97C485.54 343.25 488.35 334.21 488.35 334.21L526 324.8C532.399 322.109 539.123 320.267 546 319.32C546 319.32 556.19 320.49 557.36 306.38L565.93 267.59Z"
        fill="#0BCEAF" />
    <path
        d="M338.35 229.31C338.35 229.31 334.12 226.41 331 233.31C331 233.31 325.21 241.55 329.22 246.23C329.22 246.23 367.75 289.23 381.57 297.68C381.57 297.68 377.13 263.68 376.84 252.57C376.797 249.708 376.266 246.874 375.27 244.19C374.35 241.8 373.04 239.5 371.32 239.1L338.35 229.31Z"
        fill="#0BCEAF" />
    <path opacity="0.2"
        d="M338.35 229.31C338.35 229.31 334.12 226.41 331 233.31C331 233.31 325.21 241.55 329.22 246.23C329.22 246.23 367.75 289.23 381.57 297.68C381.57 297.68 377.13 263.68 376.84 252.57C376.797 249.708 376.266 246.874 375.27 244.19C374.35 241.8 373.04 239.5 371.32 239.1L338.35 229.31Z"
        fill="black" />
    <path
        d="M373.37 233.64L367.75 248.34C361.09 245.98 355.359 241.555 351.39 235.71C350.511 234.389 349.837 232.943 349.39 231.42C348.59 228.81 346.79 224.47 343.67 224.63L355 202.48C355 202.48 359.12 210.15 360 209.48C360 209.48 360.9 225 373.37 233.64Z"
        fill="#F9B499" />
    <path
        d="M343.7 224.63L335.9 232.2L372.43 269C372.43 269 376.65 250.92 367.75 248.38C367.75 248.38 353.94 243.6 349.93 232.46C349.93 232.42 348.63 224.92 343.7 224.63Z"
        fill="white" />
    <path
        d="M379.34 284.1C374.686 280.815 370.393 277.047 366.53 272.86C362.656 268.684 359.09 264.232 355.86 259.54C354.26 257.18 352.72 254.79 351.26 252.34C350.53 251.12 349.82 249.89 349.12 248.65C348.42 247.41 347.8 246.13 347.05 244.96C345.442 242.648 343.624 240.489 341.62 238.51C339.71 236.41 337.78 234.33 335.9 232.2C337.95 234.2 339.96 236.2 341.98 238.2L344.98 241.2C345.982 242.235 346.895 243.352 347.71 244.54C348.54 245.73 349.2 247.01 349.9 248.22C350.6 249.43 351.32 250.67 352.06 251.87C353.53 254.29 355.06 256.65 356.71 258.97C359.883 263.651 363.357 268.12 367.11 272.35L368.52 273.93L369.98 275.47C370.98 276.47 371.98 277.47 372.98 278.47C373.98 279.47 375.05 280.39 376.08 281.36C377.11 282.33 378.26 283.17 379.34 284.1Z"
        fill="#0BCEAF" />
    <path
        d="M322 419.61C322.034 419.809 322.121 419.996 322.251 420.15C322.382 420.305 322.552 420.421 322.743 420.488C322.934 420.554 323.139 420.568 323.338 420.528C323.536 420.488 323.72 420.395 323.87 420.26C325.34 418.98 328.46 417.53 335.03 417.53C335.03 417.53 342.44 417.53 346.03 415.11C346.42 414.835 346.734 414.467 346.943 414.039C347.153 413.61 347.252 413.136 347.23 412.66L345.49 350.66C345.49 350.66 344.79 341.66 342.33 335.07C341.631 333.256 341.291 331.324 341.33 329.38L342.57 285.17C342.57 285.17 342.13 246.85 308.71 257.55C308.71 257.55 305.15 263.78 306.26 267.35C306.26 267.35 301.5 319.24 310.67 358.11C310.67 358.11 314.73 369.37 318.96 392.76C319 392.81 320.76 412.17 322 419.61Z"
        fill="#0BCEAF" />
    <path d="M370.36 241L374.27 231.86L362.53 213.59C362.53 213.59 360 229.12 370.36 241Z"
        fill="#F7A48B" />
    <path
        d="M379.48 235.2C390.885 235.2 400.13 220.282 400.13 201.88C400.13 183.478 390.885 168.56 379.48 168.56C368.075 168.56 358.83 183.478 358.83 201.88C358.83 220.282 368.075 235.2 379.48 235.2Z"
        fill="#F9B499" />
    <path
        d="M351.67 197.43C350.09 193.43 347.31 186.84 345.11 183.78C345.11 183.78 339.86 173.1 352.35 176.18C352.35 176.18 350.54 171.83 356.7 169.11C356.7 169.11 369.4 157.23 384.14 167.88C384.323 168.014 384.539 168.094 384.765 168.111C384.991 168.129 385.218 168.083 385.419 167.98C385.62 167.876 385.789 167.718 385.906 167.524C386.022 167.329 386.083 167.107 386.08 166.88C386 164.88 386.58 162.72 389.66 163.54C389.66 163.54 399.28 167.3 398.53 176.87C398.484 177.591 398.287 178.294 397.953 178.934C397.618 179.574 397.153 180.136 396.588 180.586C396.023 181.035 395.37 181.361 394.671 181.543C393.972 181.724 393.243 181.757 392.53 181.64C391.92 181.52 390.96 180.25 390.6 180.93C385.53 190.34 373.21 183.64 373.21 183.64C373.21 183.64 371.58 186.54 367.96 184.55C367.96 184.55 368.78 198.34 364.07 203.95C364.07 203.95 364.07 193.77 358.26 196.21C355.38 197.42 355.09 200.83 355.53 203.79C355.53 203.84 355.47 203.79 355.32 203.58C353.779 201.741 352.547 199.664 351.67 197.43V197.43Z"
        fill="#2F2E41" />
    <path
        d="M359.64 209.75C362.23 209.75 364.33 206.495 364.33 202.48C364.33 198.465 362.23 195.21 359.64 195.21C357.05 195.21 354.95 198.465 354.95 202.48C354.95 206.495 357.05 209.75 359.64 209.75Z"
        fill="#F9B499" />
    <path
        d="M520.71 191.81C520.71 191.81 521.35 186.86 522.45 184.94C522.573 184.726 522.747 184.545 522.956 184.415C523.165 184.284 523.404 184.207 523.65 184.19L540.81 182.76C540.81 182.76 539.89 189.58 543.94 189.21C543.94 189.21 553.53 197.02 553.53 199.21C553.53 199.21 553.23 191.52 557.53 190.98C558.426 190.889 559.325 191.126 560.06 191.646C560.795 192.166 561.317 192.935 561.53 193.81C561.985 195.454 562.109 197.173 561.894 198.865C561.68 200.558 561.131 202.191 560.28 203.67L564.28 206.12C564.28 206.12 570.92 196.75 565.76 192.51C565.76 192.51 577.56 181.08 567.42 174.99C567.42 174.99 574.06 163.93 563.18 161.53C563.18 161.53 551.56 156.37 526.67 165.59C526.67 165.59 503.26 174.26 520.77 181.45C520.964 181.545 521.132 181.686 521.259 181.86C521.387 182.034 521.47 182.237 521.501 182.451C521.533 182.664 521.512 182.883 521.44 183.086C521.369 183.29 521.248 183.473 521.09 183.62C520.23 184.62 518.62 184.88 518.32 186.74C518 188.31 518.71 189.28 520.71 191.81Z"
        fill="#2F2E41" />
    <path
        d="M559.588 205.292C562.428 204.829 564.208 201.254 563.564 197.307C562.919 193.361 560.095 190.538 557.255 191.001C554.415 191.465 552.635 195.04 553.28 198.986C553.924 202.932 556.748 205.756 559.588 205.292Z"
        fill="#F9B499" />
</svg>
    