<svg width="866" height="683" viewBox="0 0 866 683" fill="none" xmlns="http://www.w3.org/2000/svg">
    <g clip-path="url(#clip0_102_2)">
        <path d="M779.22 632.63H721.84V633.06H779.22V632.63Z" fill="#EBEBEB" />
        <path d="M573.6 637.34H558.54V637.77H573.6V637.34Z" fill="#EBEBEB" />
        <path d="M720.11 616.55H686.86V616.98H720.11V616.55Z" fill="#EBEBEB" />
        <path d="M165.46 619.46H90.63V619.89H165.46V619.46Z" fill="#EBEBEB" />
        <path d="M191.86 619.46H180.89V619.89H191.86V619.46Z" fill="#EBEBEB" />
        <path d="M389.83 626.78H227.52V627.21H389.83V626.78Z" fill="#EBEBEB" />
        <path
            d="M412.78 527.48H78.22C75.597 527.48 73.0814 526.438 71.2267 524.583C69.3719 522.729 68.33 520.213 68.33 517.59V47.32C68.3537 44.7117 69.4058 42.2182 71.2577 40.3813C73.1096 38.5444 75.6116 37.5125 78.22 37.51H412.78C414.08 37.5087 415.367 37.7635 416.568 38.26C417.769 38.7564 418.86 39.4847 419.78 40.4032C420.699 41.3217 421.428 42.4124 421.926 43.613C422.424 44.8135 422.68 46.1004 422.68 47.4V517.59C422.68 518.89 422.424 520.177 421.926 521.377C421.428 522.578 420.699 523.668 419.78 524.587C418.86 525.505 417.769 526.234 416.568 526.73C415.367 527.226 414.08 527.481 412.78 527.48ZM78.22 37.86C75.7126 37.8653 73.3095 38.8637 71.5366 40.6366C69.7636 42.4096 68.7652 44.8127 68.76 47.32V517.59C68.7652 520.097 69.7636 522.5 71.5366 524.273C73.3095 526.046 75.7126 527.045 78.22 527.05H412.78C415.287 527.045 417.69 526.046 419.463 524.273C421.236 522.5 422.235 520.097 422.24 517.59V47.32C422.235 44.8127 421.236 42.4096 419.463 40.6366C417.69 38.8637 415.287 37.8653 412.78 37.86H78.22Z"
            fill="#EBEBEB" />
        <path
            d="M787.54 527.48H453C451.7 527.481 450.413 527.226 449.212 526.73C448.011 526.234 446.92 525.505 446 524.587C445.081 523.668 444.351 522.578 443.854 521.377C443.356 520.177 443.1 518.89 443.1 517.59V47.32C443.124 44.71 444.177 42.2149 446.031 40.3778C447.885 38.5406 450.39 37.5099 453 37.51H787.54C790.163 37.51 792.678 38.552 794.533 40.4067C796.388 42.2615 797.43 44.777 797.43 47.4V517.59C797.43 520.213 796.388 522.729 794.533 524.583C792.678 526.438 790.163 527.48 787.54 527.48ZM453 37.86C450.493 37.8653 448.09 38.8637 446.317 40.6366C444.544 42.4096 443.545 44.8127 443.54 47.32V517.59C443.545 520.097 444.544 522.5 446.317 524.273C448.09 526.046 450.493 527.045 453 527.05H787.54C790.047 527.045 792.45 526.046 794.223 524.273C795.996 522.5 796.995 520.097 797 517.59V47.32C796.995 44.8127 795.996 42.4096 794.223 40.6366C792.45 38.8637 790.047 37.8653 787.54 37.86H453Z"
            fill="#EBEBEB" />
        <path d="M866.03 604.76H-0.26001V605.19H866.03V604.76Z" fill="#EBEBEB" />
        <path d="M282.61 256.84H92.22V604.5H282.61V256.84Z" fill="#EBEBEB" />
        <path d="M254.7 214.34H120.13V237.4H254.7V214.34Z" fill="#F0F0F0" />
        <path d="M272.82 265.28H102.01V604.5H272.82V265.28Z" fill="#FAFAFA" />
        <path d="M272.82 418.71H102.01V461.89H272.82V418.71Z" fill="#F0F0F0" />
        <path d="M272.82 561.8H102.01V604.98H272.82V561.8Z" fill="#F0F0F0" />
        <path
            d="M261.36 456.45V422.45C261.363 421.586 261.023 420.756 260.416 420.142C259.809 419.527 258.984 419.178 258.12 419.17C257.25 419.17 256.416 419.516 255.801 420.131C255.186 420.746 254.84 421.58 254.84 422.45V456.45C254.843 457.32 255.189 458.154 255.803 458.77C256.417 459.386 257.25 459.735 258.12 459.74C258.983 459.724 259.806 459.371 260.411 458.756C261.017 458.141 261.357 457.313 261.36 456.45Z"
            fill="white" />
        <path d="M145.06 270.63H115.35V413.46H145.06V270.63Z" fill="#E0E0E0" />
        <path d="M142.33 273.8H118.33V410.24H142.33V273.8Z" fill="#EBEBEB" />
        <path d="M142.31 293.08L118.33 302.51V325.62L142.31 316.19V293.08Z" fill="#F5F5F5" />
        <path d="M142.31 320.91L118.33 330.33V339.19L142.31 329.76V320.91Z" fill="#F5F5F5" />
        <path d="M142.31 369L118.33 378.43V387.28L142.31 377.86V369Z" fill="#F5F5F5" />
        <path
            d="M671 129.34C671 133.159 669.483 136.822 666.782 139.522C664.082 142.223 660.419 143.74 656.6 143.74H550.69C546.961 143.601 543.431 142.022 540.842 139.335C538.253 136.648 536.807 133.061 536.807 129.33C536.807 125.599 538.253 122.012 540.842 119.325C543.431 116.638 546.961 115.059 550.69 114.92H656.57C658.465 114.917 660.342 115.288 662.093 116.012C663.844 116.736 665.436 117.798 666.776 119.137C668.116 120.476 669.179 122.067 669.904 123.818C670.629 125.569 671.001 127.445 671 129.34Z"
            fill="#F5F5F5" />
        <path
            d="M628.23 117V141.81H551.63C548.401 141.718 545.335 140.371 543.083 138.055C540.832 135.738 539.572 132.635 539.572 129.405C539.572 126.175 540.832 123.072 543.083 120.755C545.335 118.439 548.401 117.092 551.63 117H628.23Z"
            fill="#E6E6E6" />
        <path
            d="M544.41 192.07C544.409 197.22 542.442 202.175 538.911 205.924C535.38 209.672 530.551 211.932 525.41 212.24H470.72C465.685 211.825 460.987 209.539 457.553 205.834C454.118 202.128 452.195 197.271 452.163 192.219C452.13 187.167 453.99 182.285 457.376 178.536C460.763 174.786 465.43 172.44 470.46 171.96C470.912 164.582 474.173 157.656 479.572 152.607C484.971 147.558 492.099 144.767 499.491 144.81C506.883 144.852 513.979 147.723 519.32 152.834C524.661 157.945 527.842 164.907 528.21 172.29C532.779 173.209 536.889 175.682 539.842 179.287C542.795 182.893 544.409 187.409 544.41 192.07Z"
            fill="#F5F5F5" />
        <path d="M516.94 242.34L498.89 260.41L480.8 242.34H487.92V212.48H510.88V242.34H516.94Z"
            fill="#E6E6E6" />
        <path
            d="M730.66 416.44C730.658 413.947 730.291 411.467 729.57 409.08L736 403.4L732 396.34L723.84 399.1C720.392 395.419 715.919 392.855 711 391.74L709.27 383.3H701.13L699.4 391.74C694.508 392.874 690.063 395.436 686.63 399.1L678.48 396.34L674.41 403.4L680.87 409.08C679.42 413.883 679.42 419.007 680.87 423.81L674.41 429.49L678.48 436.54L686.63 433.77C690.063 437.439 694.507 440.007 699.4 441.15L701.13 449.59H709.27L711 441.15C715.891 440.009 720.332 437.44 723.76 433.77L731.92 436.54L735.99 429.49L729.53 423.87C730.276 421.464 730.657 418.959 730.66 416.44ZM705.29 430.13C702.681 430.13 700.131 429.356 697.962 427.907C695.793 426.458 694.102 424.398 693.104 421.988C692.106 419.577 691.845 416.925 692.353 414.367C692.862 411.808 694.119 409.458 695.963 407.613C697.808 405.769 700.158 404.512 702.717 404.003C705.275 403.495 707.927 403.756 710.338 404.754C712.748 405.752 714.808 407.443 716.257 409.612C717.706 411.781 718.48 414.331 718.48 416.94C718.48 418.672 718.139 420.387 717.476 421.988C716.813 423.588 715.842 425.042 714.617 426.267C713.392 427.492 711.938 428.463 710.338 429.126C708.737 429.789 707.022 430.13 705.29 430.13Z"
            fill="#E0E0E0" />
        <path
            d="M766.63 439.19C765.941 437.502 765.011 435.922 763.87 434.5L766.71 428.88L762 425.21L757.22 429.3C753.901 427.741 750.193 427.209 746.57 427.77L743.1 422.58L737.59 424.79L738.74 430.98C735.734 433.086 733.417 436.032 732.08 439.45L725.81 439.8L724.96 445.69L730.89 447.78C731.216 451.433 732.606 454.91 734.89 457.78L732.05 463.4L736.72 467.07L741.51 462.98C744.83 464.533 748.536 465.068 752.16 464.52L755.63 469.72L761.15 467.52L760 461.32C763.006 459.213 765.32 456.262 766.65 452.84L772.93 452.48L773.78 446.61L767.85 444.51C767.701 442.687 767.291 440.895 766.63 439.19ZM753.15 455.39C751.38 456.104 749.438 456.277 747.57 455.887C745.701 455.497 743.991 454.562 742.654 453.2C741.317 451.838 740.414 450.11 740.059 448.235C739.704 446.359 739.913 444.421 740.66 442.665C741.407 440.908 742.658 439.413 744.254 438.367C745.851 437.322 747.722 436.773 749.63 436.791C751.539 436.808 753.399 437.392 754.976 438.467C756.553 439.542 757.776 441.06 758.49 442.83C759.444 445.198 759.419 447.849 758.419 450.199C757.42 452.548 755.528 454.405 753.16 455.36L753.15 455.39Z"
            fill="#EBEBEB" />
        <path d="M673.655 226.321L673.199 313.429L774.168 313.958L774.624 226.849L673.655 226.321Z"
            fill="#E0E0E0" />
        <path d="M673.752 210.029L673.667 226.329L774.636 226.858L774.721 210.558L673.752 210.029Z"
            fill="#E6E6E6" />
        <path d="M670.24 310.98L771.23 311.52L774.63 226.85L673.65 226.33L670.24 310.98Z"
            fill="#F5F5F5" />
        <path d="M696.11 247.24L746.09 247.5L746.7 232.6L696.7 232.34L696.11 247.24Z" fill="#EBEBEB" />
        <path d="M753.74 266.8L767.09 266.87L767.63 253.51L754.27 253.44L753.74 266.8Z"
            fill="#E0E0E0" />
        <path d="M734.8 266.7L748.14 266.76L748.68 253.42L735.34 253.34L734.8 266.7Z" fill="#E0E0E0" />
        <path d="M753.01 284.8L766.37 284.87L766.9 271.51L753.54 271.44L753.01 284.8Z"
            fill="#E0E0E0" />
        <path d="M752.3 302.8L765.64 302.87L766.17 289.53L752.83 289.46L752.3 302.8Z" fill="#EBEBEB" />
        <path d="M734.07 284.7L747.43 284.77L747.97 271.43L734.61 271.36L734.07 284.7Z"
            fill="#E0E0E0" />
        <path d="M715.13 284.59L728.49 284.66L729.03 271.32L715.67 271.25L715.13 284.59Z"
            fill="#E0E0E0" />
        <path d="M696.2 284.51L709.55 284.58L710.07 271.22L696.73 271.15L696.2 284.51Z"
            fill="#E0E0E0" />
        <path d="M677.26 284.4L690.6 284.47L691.14 271.13L677.8 271.04L677.26 284.4Z" fill="#E0E0E0" />
        <path d="M733.34 302.7L746.7 302.77L747.24 289.43L733.88 289.36L733.34 302.7Z"
            fill="#EBEBEB" />
        <path d="M714.41 302.61L727.76 302.68L728.3 289.32L714.94 289.25L714.41 302.61Z"
            fill="#EBEBEB" />
        <path d="M695.47 302.51L708.83 302.58L709.36 289.22L696.01 289.15L695.47 302.51Z"
            fill="#E0E0E0" />
        <path d="M715.86 266.59L729.2 266.66L729.74 253.32L716.4 253.25L715.86 266.59Z"
            fill="#EBEBEB" />
        <path d="M696.92 266.49L710.26 266.57L710.8 253.22L697.46 253.15L696.92 266.49Z"
            fill="#EBEBEB" />
        <path d="M677.97 266.4L691.33 266.47L691.87 253.11L678.51 253.04L677.97 266.4Z"
            fill="#EBEBEB" />
        <path d="M676.53 302.4L689.89 302.47L690.41 289.13L677.07 289.06L676.53 302.4Z"
            fill="#E0E0E0" />
        <path
            d="M724 205.85C722.845 205.846 721.714 206.185 720.751 206.824C719.788 207.463 719.037 208.373 718.591 209.439C718.146 210.505 718.027 211.679 718.249 212.813C718.471 213.947 719.025 214.99 719.84 215.809C720.655 216.628 721.694 217.187 722.827 217.415C723.96 217.643 725.135 217.53 726.203 217.09C727.272 216.65 728.186 215.903 728.83 214.944C729.473 213.984 729.818 212.855 729.82 211.7C729.825 210.933 729.679 210.172 729.388 209.462C729.098 208.752 728.67 208.106 728.129 207.562C727.588 207.018 726.944 206.587 726.236 206.293C725.527 205.999 724.767 205.849 724 205.85ZM724 216.1C723.121 216.104 722.261 215.847 721.529 215.362C720.796 214.877 720.224 214.186 719.885 213.375C719.545 212.565 719.454 211.672 719.622 210.81C719.79 209.947 720.211 209.154 720.83 208.531C721.449 207.908 722.239 207.482 723.1 207.308C723.961 207.134 724.855 207.219 725.668 207.553C726.48 207.887 727.176 208.455 727.665 209.184C728.155 209.913 728.418 210.771 728.42 211.65C728.423 212.233 728.31 212.81 728.089 213.349C727.869 213.888 727.544 214.379 727.133 214.792C726.723 215.205 726.234 215.534 725.697 215.758C725.159 215.982 724.583 216.099 724 216.1Z"
            fill="#E6E6E6" />
        <path
            d="M300.05 607.77C298.655 607.787 297.26 607.693 295.88 607.49C237.22 603.72 239.88 492.65 239.98 487.93L243.89 488.06C243.89 489.17 241.21 600.19 296.22 603.6H296.49C297.32 603.75 317.16 607.33 329.18 585.3L329.55 584.62C339.42 567.42 346.07 525.53 349.89 493.39C355.89 442.81 357.61 364.8 357.71 364.02C359.94 339.95 371.6 328.74 394.42 328.59L414.94 328.74V332.65L394.43 332.5C373.52 332.63 363.7 342.12 361.59 364.24C361.59 364.88 359.86 443.09 353.76 493.86C348.12 541.14 341.11 572.35 332.91 586.58L332.59 587.16C322.72 605.36 307.47 607.77 300.05 607.77Z"
            fill="#2F2E41" />
        <path
            d="M255.07 515.88C255.153 517.114 254.746 518.331 253.937 519.267C253.128 520.203 251.983 520.783 250.75 520.88H234.42C233.226 520.882 232.077 520.43 231.205 519.614C230.334 518.798 229.806 517.681 229.73 516.49L227.62 486.38H253L255.07 515.88Z"
            fill="#2F2E41" />
        <path
            d="M128.11 72.14H140.29C137.608 72.099 134.944 72.5871 132.451 73.5763C129.958 74.5655 127.684 76.0365 125.759 77.9051C123.835 79.7737 122.298 82.0034 121.236 84.4665C120.174 86.9296 119.608 89.5779 119.57 92.26C119.551 92.9843 119.578 93.709 119.65 94.43L145.5 464.3C146.013 470.286 148.735 475.867 153.136 479.958C157.537 484.048 163.302 486.355 169.31 486.43H157.12C151.104 486.346 145.334 484.025 140.936 479.919C136.538 475.813 133.826 470.216 133.33 464.22L107.46 94.43C106.968 89.0358 108.638 83.667 112.104 79.504C115.569 75.341 120.546 72.7246 125.94 72.23C126.661 72.1601 127.386 72.1301 128.11 72.14Z"
            fill="#407BFF" />
        <path
            d="M128.11 72.14H140.29C137.608 72.099 134.944 72.5871 132.451 73.5763C129.958 74.5655 127.684 76.0365 125.76 77.9051C123.835 79.7737 122.298 82.0034 121.236 84.4665C120.174 86.9296 119.608 89.5779 119.57 92.26C119.552 92.9843 119.578 93.709 119.65 94.43L145.5 464.3C146.013 470.286 148.735 475.867 153.136 479.958C157.537 484.048 163.302 486.355 169.31 486.43H157.12C144.86 486.43 132.51 476.48 131.65 464.22L105.74 94.43C104.88 82.09 115.85 72.14 128.11 72.14Z"
            fill="#2F2E41" />
        <path
            d="M160.71 486.43H309.91C315.327 486.507 320.553 484.43 324.438 480.655C328.324 476.88 330.551 471.717 330.63 466.3C330.638 465.606 330.612 464.912 330.55 464.22L304.7 94.43C304.206 88.4345 301.496 82.838 297.1 78.7318C292.703 74.6256 286.935 72.3041 280.92 72.22H131.77C129.086 72.175 126.42 72.6593 123.923 73.6452C121.427 74.6312 119.149 76.0994 117.22 77.9661C115.291 79.8327 113.749 82.0612 112.682 84.5241C111.614 86.987 111.043 89.6361 111 92.32C111 93.02 111 93.73 111.07 94.43L137 464.3C137.512 470.269 140.219 475.837 144.599 479.925C148.979 484.013 154.72 486.331 160.71 486.43Z"
            fill="#0BCEAF" />
        <g opacity="0.6">
            <path
                d="M280.53 79.28C284.71 79.3452 288.717 80.963 291.77 83.8186C294.823 86.6743 296.705 90.5636 297.05 94.73L322.92 464.59C323.248 468.146 322.15 471.688 319.868 474.435C317.586 477.182 314.306 478.91 310.75 479.24C310.252 479.29 309.751 479.31 309.25 479.3H160.07C155.886 479.235 151.876 477.617 148.819 474.759C145.762 471.902 143.877 468.01 143.53 463.84L117.69 94C117.52 92.2413 117.699 90.4665 118.216 88.777C118.733 87.0875 119.578 85.5166 120.703 84.154C121.828 82.7915 123.21 81.6641 124.771 80.8363C126.332 80.0085 128.041 79.4967 129.8 79.33C130.319 79.2951 130.841 79.2951 131.36 79.33L280.53 79.28Z"
                fill="white" />
        </g>
        <path d="M312.32 380.05H142.77L125.95 139.7H295.52L312.32 380.05Z" fill="#0071F2" />
        <g opacity="0.8">
            <path d="M312.32 380.05H142.77L125.95 139.7H295.52L312.32 380.05Z" fill="white" />
        </g>
        <path
            d="M176.19 345.3C176.128 344.681 176.313 344.063 176.705 343.58C177.096 343.097 177.662 342.788 178.28 342.72C178.416 342.71 178.554 342.71 178.69 342.72C179.063 342.717 179.433 342.789 179.777 342.934C180.121 343.078 180.431 343.291 180.69 343.56L180.12 344.13C179.946 343.942 179.734 343.793 179.497 343.693C179.261 343.593 179.006 343.544 178.75 343.55C178.337 343.522 177.929 343.659 177.616 343.931C177.304 344.203 177.111 344.587 177.08 345C177.07 345.1 177.07 345.2 177.08 345.3C177.106 345.785 177.32 346.242 177.676 346.572C178.033 346.903 178.504 347.081 178.99 347.07C179.239 347.079 179.486 347.03 179.712 346.926C179.938 346.821 180.136 346.665 180.29 346.47L180.93 347.05C180.691 347.326 180.392 347.545 180.056 347.689C179.72 347.832 179.355 347.898 178.99 347.88C178.281 347.892 177.595 347.63 177.074 347.15C176.553 346.67 176.236 346.007 176.19 345.3Z"
            fill="#2F2E41" />
        <path
            d="M186 342.8L186.34 347.8H185.42L185.26 345.64H182.7L182.85 347.8H181.92L181.57 342.8H182.51L182.65 344.86H185.25L185.09 342.8H186Z"
            fill="#2F2E41" />
        <path
            d="M191.43 347V347.78H187.67L187.33 342.78H191V343.56H188.28V344.86H190.7V345.62H188.28L188.37 347.02L191.43 347Z"
            fill="#2F2E41" />
        <path
            d="M192 345.3C191.941 344.677 192.131 344.057 192.528 343.573C192.926 343.09 193.498 342.783 194.12 342.72C194.246 342.71 194.373 342.71 194.5 342.72C194.873 342.714 195.244 342.785 195.588 342.929C195.933 343.074 196.243 343.289 196.5 343.56L195.94 344.13C195.763 343.943 195.549 343.794 195.311 343.694C195.074 343.594 194.818 343.545 194.56 343.55C194.355 343.534 194.149 343.558 193.953 343.622C193.758 343.685 193.577 343.787 193.42 343.921C193.264 344.054 193.136 344.218 193.043 344.401C192.951 344.585 192.895 344.785 192.88 344.99C192.865 345.093 192.865 345.197 192.88 345.3C192.908 345.786 193.124 346.243 193.482 346.573C193.841 346.903 194.313 347.081 194.8 347.07C195.045 347.075 195.288 347.024 195.51 346.92C195.732 346.816 195.927 346.662 196.08 346.47L196.72 347.05C196.486 347.328 196.191 347.547 195.858 347.691C195.525 347.836 195.162 347.9 194.8 347.88C194.093 347.887 193.409 347.624 192.889 347.145C192.369 346.665 192.051 346.006 192 345.3Z"
            fill="#2F2E41" />
        <path
            d="M199.28 345.71L198.54 346.53L198.64 347.82H197.7L197.35 342.82H198.28L198.46 345.38L200.75 342.82H201.8L199.86 345L202.28 347.79H201.19L199.28 345.71Z"
            fill="#2F2E41" />
        <path d="M202.56 342.8H203.5L203.84 347.8H202.92L202.56 342.8Z" fill="#2F2E41" />
        <path
            d="M209.3 342.8L209.65 347.8H208.88L205.88 344.4L206.13 347.8H205.28L204.92 342.8H205.69L208.69 346.19L208.46 342.8H209.3Z"
            fill="#2F2E41" />
        <path
            d="M214.25 345.25H215.12L215.26 347.25C214.713 347.679 214.035 347.906 213.34 347.89C212.62 347.915 211.917 347.661 211.381 347.18C210.844 346.699 210.514 346.029 210.46 345.31C210.405 344.681 210.601 344.057 211.006 343.573C211.411 343.089 211.992 342.786 212.62 342.73C212.743 342.72 212.867 342.72 212.99 342.73C213.374 342.714 213.757 342.78 214.114 342.923C214.471 343.066 214.793 343.283 215.06 343.56L214.51 344.12C214.325 343.937 214.104 343.793 213.862 343.696C213.62 343.6 213.361 343.554 213.1 343.56C212.896 343.539 212.689 343.559 212.493 343.618C212.296 343.677 212.113 343.775 211.954 343.905C211.796 344.035 211.664 344.195 211.567 344.376C211.47 344.557 211.41 344.756 211.39 344.96C211.375 345.076 211.375 345.194 211.39 345.31C211.423 345.798 211.644 346.254 212.005 346.584C212.366 346.914 212.841 347.091 213.33 347.08C213.679 347.078 214.022 346.992 214.33 346.83L214.25 345.25Z"
            fill="#2F2E41" />
        <path
            d="M219.13 343.58L219.24 345.14H221.66V345.94H219.36V347.82H218.44L218.08 342.82H221.74V343.6L219.13 343.58Z"
            fill="#2F2E41" />
        <path
            d="M222.49 345.3C222.431 344.677 222.621 344.057 223.018 343.573C223.416 343.09 223.988 342.783 224.61 342.72C224.743 342.71 224.877 342.71 225.01 342.72C225.729 342.697 226.428 342.953 226.963 343.434C227.498 343.914 227.826 344.583 227.88 345.3C227.91 345.609 227.88 345.92 227.79 346.217C227.699 346.514 227.552 346.79 227.355 347.029C227.158 347.269 226.916 347.467 226.642 347.613C226.368 347.759 226.069 347.85 225.76 347.88H225.37C224.65 347.905 223.948 347.651 223.411 347.17C222.874 346.689 222.544 346.019 222.49 345.3ZM226.95 345.3C226.922 344.819 226.708 344.368 226.353 344.041C225.999 343.715 225.532 343.539 225.05 343.55C224.845 343.549 224.642 343.588 224.452 343.665C224.263 343.742 224.09 343.856 223.944 344C223.798 344.144 223.682 344.315 223.603 344.504C223.523 344.693 223.481 344.895 223.48 345.1C223.475 345.167 223.475 345.233 223.48 345.3C223.503 345.781 223.712 346.234 224.063 346.564C224.414 346.894 224.879 347.076 225.36 347.07C225.582 347.067 225.802 347.018 226.004 346.925C226.206 346.832 226.386 346.698 226.533 346.531C226.68 346.365 226.791 346.169 226.857 345.957C226.924 345.745 226.945 345.521 226.92 345.3H226.95Z"
            fill="#2F2E41" />
        <path
            d="M232.31 347.82L231.19 346.35H229.86L229.97 347.82H229L228.65 342.82H230.65C231.98 342.82 232.84 343.49 232.92 344.6C232.946 344.927 232.868 345.254 232.697 345.534C232.527 345.814 232.272 346.033 231.97 346.16L233.23 347.82H232.31ZM230.75 343.58H229.67L229.81 345.58H230.89C231.7 345.58 232.11 345.21 232.06 344.58C232.01 343.95 231.56 343.58 230.75 343.58Z"
            fill="#2F2E41" />
        <path
            d="M236 345.63L235.82 342.8H236.74L236.94 345.6C236.912 345.792 236.928 345.987 236.987 346.172C237.045 346.357 237.144 346.526 237.276 346.667C237.409 346.808 237.572 346.918 237.752 346.988C237.933 347.057 238.127 347.086 238.32 347.07C239.13 347.07 239.55 346.63 239.48 345.6L239.29 342.8H240.2L240.4 345.63C240.459 345.916 240.45 346.212 240.374 346.494C240.298 346.777 240.157 347.037 239.963 347.256C239.769 347.474 239.527 347.644 239.255 347.753C238.984 347.861 238.691 347.905 238.4 347.88C237.823 347.922 237.253 347.736 236.812 347.362C236.371 346.988 236.094 346.456 236.04 345.88C236.02 345.798 236.006 345.714 236 345.63Z"
            fill="#2F2E41" />
        <path
            d="M245.86 344.58C245.93 345.69 245.17 346.36 243.86 346.36H242.73L242.83 347.82H241.9L241.56 342.82H243.61C244.92 342.8 245.78 343.47 245.86 344.58ZM244.92 344.58C244.92 343.95 244.42 343.58 243.6 343.58H242.53L242.67 345.58H243.75C244.56 345.58 245 345.21 244.92 344.58Z"
            fill="#2F2E41" />
        <path
            d="M246.65 342.8H248.84C249.192 342.768 249.547 342.807 249.884 342.913C250.222 343.019 250.535 343.191 250.805 343.419C251.076 343.647 251.298 343.926 251.461 344.24C251.623 344.554 251.721 344.898 251.75 345.25V345.3C251.818 345.899 251.645 346.501 251.27 346.973C250.895 347.445 250.349 347.75 249.75 347.82C249.571 347.84 249.389 347.84 249.21 347.82H247L246.65 342.8ZM249.09 347.02C249.294 347.042 249.501 347.024 249.698 346.966C249.895 346.908 250.079 346.812 250.239 346.682C250.399 346.553 250.531 346.394 250.629 346.213C250.727 346.033 250.789 345.834 250.81 345.63C250.83 345.521 250.83 345.409 250.81 345.3C250.8 345.062 250.742 344.828 250.641 344.612C250.54 344.396 250.396 344.203 250.22 344.043C250.043 343.883 249.836 343.759 249.611 343.68C249.386 343.6 249.148 343.567 248.91 343.58H247.64L247.89 347.02H249.09Z"
            fill="#2F2E41" />
        <path
            d="M256 346.64H253.5L253.08 347.82H252.19L254.1 342.82H255L257.61 347.82H256.61L256 346.64ZM255.64 345.92L254.55 343.72L253.75 345.92H255.64Z"
            fill="#2F2E41" />
        <path d="M258.68 343.58H257V342.8H261.26V343.58H259.59L259.88 347.82H259L258.68 343.58Z"
            fill="#2F2E41" />
        <path
            d="M266 347V347.78H262.2L261.86 342.78H265.52V343.56H262.8L262.89 344.86H265.3V345.62H262.87L262.97 347.02L266 347Z"
            fill="#2F2E41" />
        <path
            d="M266.61 347.29L266.88 346.57C267.378 346.913 267.966 347.101 268.57 347.11C269.35 347.11 269.66 346.83 269.63 346.46C269.63 345.38 266.63 346.08 266.5 344.22C266.5 343.41 267.03 342.66 268.41 342.66C269.011 342.647 269.603 342.803 270.12 343.11L269.87 343.83C269.441 343.583 268.955 343.449 268.46 343.44C267.69 343.44 267.39 343.74 267.46 344.11C267.46 345.19 270.46 344.49 270.58 346.33C270.58 347.13 270.02 347.82 268.66 347.82C267.938 347.864 267.22 347.678 266.61 347.29Z"
            fill="#2F2E41" />
        <path
            d="M276 355.45H175.57C172.746 355.404 170.041 354.309 167.982 352.377C165.922 350.445 164.656 347.815 164.43 345C164.319 343.733 164.458 342.457 164.84 341.244C165.222 340.032 165.84 338.906 166.657 337.932C167.474 336.958 168.475 336.154 169.603 335.567C170.731 334.98 171.963 334.621 173.23 334.51C173.563 334.49 173.897 334.49 174.23 334.51H274.64C277.459 334.552 280.161 335.641 282.222 337.565C284.283 339.489 285.554 342.111 285.79 344.92C285.896 346.273 285.722 347.632 285.278 348.914C284.834 350.196 284.13 351.373 283.21 352.37C282.288 353.356 281.171 354.139 279.929 354.669C278.688 355.199 277.35 355.465 276 355.45ZM174.2 336.07C173.132 336.05 172.071 336.242 171.077 336.634C170.084 337.026 169.177 337.61 168.411 338.354C167.644 339.097 167.032 339.985 166.609 340.966C166.187 341.947 165.963 343.002 165.95 344.07C165.93 344.363 165.93 344.657 165.95 344.95C166.139 347.372 167.224 349.637 168.994 351.301C170.764 352.966 173.091 353.91 175.52 353.95H276C278.157 353.985 280.24 353.162 281.791 351.662C283.341 350.162 284.233 348.107 284.27 345.95C284.27 345.663 284.27 345.373 284.27 345.08C284.076 342.656 282.987 340.391 281.214 338.727C279.441 337.063 277.111 336.119 274.68 336.08L174.2 336.07Z"
            fill="#0BCEAF" />
        <path
            d="M187.47 277.84C187.381 276.941 187.652 276.043 188.223 275.344C188.795 274.645 189.621 274.201 190.52 274.11C190.713 274.095 190.907 274.095 191.1 274.11C191.657 274.092 192.211 274.19 192.728 274.398C193.244 274.607 193.712 274.921 194.1 275.32L193.29 276.14C193.032 275.869 192.721 275.654 192.378 275.506C192.034 275.358 191.664 275.281 191.29 275.28C190.991 275.26 190.691 275.298 190.408 275.394C190.124 275.489 189.861 275.64 189.636 275.837C189.41 276.034 189.226 276.273 189.092 276.541C188.959 276.809 188.88 277.101 188.86 277.4C188.845 277.55 188.845 277.7 188.86 277.85C188.891 278.556 189.2 279.22 189.718 279.7C190.237 280.179 190.924 280.434 191.63 280.41C191.99 280.424 192.349 280.354 192.677 280.204C193.005 280.055 193.294 279.831 193.52 279.55L194.46 280.38C194.114 280.785 193.68 281.106 193.191 281.317C192.703 281.529 192.172 281.625 191.64 281.6C190.59 281.646 189.565 281.278 188.784 280.575C188.004 279.871 187.532 278.889 187.47 277.84Z"
            fill="#2F2E41" />
        <path
            d="M201.76 274.19L202.26 281.48H200.92L200.7 278.36H196.93L197.15 281.48H195.79L195.29 274.19H196.63L196.85 277.19H200.59L200.37 274.19H201.76Z"
            fill="#2F2E41" />
        <path
            d="M209.6 280.34L209.68 281.48H204.22L203.7 274.19H209L209.08 275.34H205.08L205.21 277.23H208.73V278.34H205.22L205.36 280.34H209.6Z"
            fill="#2F2E41" />
        <path
            d="M210.38 277.84C210.336 277.394 210.38 276.944 210.51 276.515C210.64 276.086 210.853 275.687 211.137 275.341C211.421 274.994 211.771 274.707 212.166 274.496C212.561 274.285 212.994 274.154 213.44 274.11C213.636 274.095 213.834 274.095 214.03 274.11C214.578 274.099 215.123 274.2 215.631 274.408C216.138 274.617 216.598 274.927 216.98 275.32L216.17 276.14C215.913 275.868 215.603 275.652 215.259 275.504C214.915 275.356 214.544 275.28 214.17 275.28C213.566 275.239 212.969 275.439 212.512 275.836C212.055 276.233 211.774 276.796 211.73 277.4C211.715 277.55 211.715 277.7 211.73 277.85C211.769 278.556 212.082 279.22 212.604 279.698C213.125 280.176 213.813 280.432 214.52 280.41C214.877 280.422 215.232 280.35 215.557 280.201C215.881 280.052 216.167 279.829 216.39 279.55L217.33 280.38C216.985 280.784 216.553 281.103 216.066 281.315C215.579 281.526 215.05 281.624 214.52 281.6C213.476 281.638 212.457 281.266 211.684 280.564C210.91 279.861 210.442 278.883 210.38 277.84Z"
            fill="#2F2E41" />
        <path
            d="M221 278.43L219.92 279.62L220.04 281.48H218.7L218.18 274.19H219.54L219.79 277.93L223.14 274.19H224.71L221.83 277.43L225.36 281.43H223.8L221 278.43Z"
            fill="#2F2E41" />
        <path d="M225.79 274.19H227.18L227.7 281.48H226.35L225.79 274.19Z" fill="#2F2E41" />
        <path
            d="M235.58 274.19L236.08 281.48H235L230.64 276.56L230.98 281.48H229.65L229.14 274.19H230.25L234.61 279.14L234.27 274.19H235.58Z"
            fill="#2F2E41" />
        <path
            d="M242.82 277.76H244.09L244.29 280.65C243.507 281.287 242.52 281.621 241.51 281.59C240.46 281.639 239.433 281.274 238.651 280.572C237.869 279.87 237.395 278.889 237.33 277.84C237.287 277.392 237.333 276.94 237.466 276.51C237.598 276.08 237.814 275.68 238.101 275.334C238.388 274.987 238.741 274.701 239.139 274.491C239.536 274.281 239.972 274.151 240.42 274.11C240.616 274.095 240.814 274.095 241.01 274.11C241.564 274.086 242.116 274.178 242.633 274.38C243.149 274.581 243.618 274.888 244.01 275.28L243.21 276.13C242.94 275.859 242.619 275.644 242.265 275.498C241.912 275.353 241.533 275.278 241.15 275.28C240.542 275.236 239.941 275.434 239.478 275.831C239.015 276.228 238.729 276.792 238.68 277.4C238.67 277.55 238.67 277.7 238.68 277.85C238.721 278.561 239.04 279.227 239.567 279.706C240.094 280.185 240.788 280.437 241.5 280.41C242.028 280.411 242.546 280.27 243 280L242.82 277.76Z"
            fill="#2F2E41" />
        <path
            d="M245.56 280.69C245.531 280.493 245.581 280.292 245.699 280.131C245.817 279.97 245.993 279.862 246.19 279.83H246.34C246.575 279.827 246.801 279.915 246.973 280.075C247.144 280.235 247.247 280.456 247.26 280.69C247.271 280.794 247.261 280.899 247.232 280.999C247.202 281.099 247.153 281.192 247.086 281.273C247.02 281.354 246.939 281.421 246.847 281.47C246.755 281.52 246.654 281.55 246.55 281.56H246.47C246.236 281.558 246.012 281.467 245.843 281.305C245.674 281.143 245.573 280.924 245.56 280.69Z"
            fill="#2F2E41" />
        <path
            d="M248.09 280.69C248.077 280.59 248.085 280.488 248.112 280.39C248.138 280.292 248.184 280.201 248.247 280.121C248.309 280.041 248.386 279.974 248.474 279.924C248.562 279.874 248.659 279.842 248.76 279.83H248.89C249.124 279.827 249.349 279.915 249.519 280.076C249.689 280.236 249.79 280.457 249.8 280.69C249.817 280.9 249.751 281.109 249.617 281.271C249.482 281.434 249.29 281.537 249.08 281.56H249C248.767 281.555 248.544 281.464 248.375 281.302C248.207 281.141 248.105 280.923 248.09 280.69Z"
            fill="#2F2E41" />
        <path
            d="M250.64 280.69C250.627 280.59 250.635 280.488 250.662 280.39C250.689 280.292 250.734 280.201 250.797 280.121C250.859 280.041 250.936 279.974 251.024 279.924C251.112 279.874 251.21 279.842 251.31 279.83H251.44C251.674 279.825 251.901 279.912 252.072 280.073C252.242 280.234 252.342 280.456 252.35 280.69C252.367 280.9 252.301 281.109 252.167 281.271C252.032 281.434 251.84 281.537 251.63 281.56H251.55C251.317 281.555 251.094 281.464 250.925 281.302C250.757 281.141 250.655 280.923 250.64 280.69Z"
            fill="#2F2E41" />
        <path
            d="M279 259.87C279.103 261.036 278.975 262.211 278.624 263.328C278.272 264.445 277.704 265.482 276.952 266.379C276.2 267.276 275.278 268.016 274.24 268.557C273.201 269.097 272.066 269.428 270.9 269.53C270.597 269.55 270.293 269.55 269.99 269.53H169.61C166.985 269.496 164.468 268.484 162.55 266.692C160.632 264.9 159.451 262.456 159.24 259.84C159.138 258.674 159.268 257.499 159.62 256.383C159.973 255.266 160.542 254.231 161.295 253.334C162.049 252.438 162.971 251.699 164.01 251.16C165.049 250.62 166.184 250.291 167.35 250.19C167.65 250.17 167.95 250.17 168.25 250.19H268.66C271.279 250.229 273.789 251.242 275.701 253.032C277.613 254.822 278.789 257.26 279 259.87Z"
            fill="#0BCEAF" />
        <g opacity="0.4">
            <path
                d="M239.82 251.31L241 268.24H169.64C167.357 268.193 165.173 267.301 163.511 265.736C161.848 264.171 160.825 262.046 160.64 259.77C160.545 258.686 160.678 257.594 161.031 256.564C161.384 255.535 161.95 254.591 162.69 253.794C163.431 252.996 164.331 252.363 165.332 251.936C166.332 251.508 167.412 251.295 168.5 251.31H239.82Z"
                fill="black" />
        </g>
        <path
            d="M268.44 221C268.661 219.829 268.789 218.642 268.82 217.45L274.21 216.04C274.233 215.344 274.187 214.647 274.07 213.96L268.44 212.61C268.001 210.196 267.199 207.863 266.06 205.69L269.83 201.69C269.46 201.08 269.07 200.49 268.66 199.89L263.31 201.46C261.747 199.533 259.907 197.848 257.85 196.46L259 190.99C258.39 190.61 257.76 190.28 257.12 189.99L253.49 194C252.359 193.521 251.192 193.129 250 192.83C248.82 192.513 247.616 192.296 246.4 192.18L244.61 186.69H242.53L241.53 192.22C239.178 192.48 236.885 193.122 234.74 194.12L230.49 190.12C229.9 190.424 229.326 190.758 228.77 191.12L230.77 196.58C228.929 198.002 227.343 199.726 226.08 201.68L220.49 200.11C220.18 200.69 219.88 201.3 219.6 201.91L223.98 205.84C223.573 206.949 223.258 208.089 223.04 209.25C222.831 210.417 222.7 211.596 222.65 212.78L217.25 214.21C217.264 214.906 217.317 215.6 217.41 216.29L223.03 217.63C223.472 220.044 224.278 222.377 225.42 224.55L221.65 228.55C222.01 229.16 222.4 229.77 222.82 230.35L228.16 228.78C229.726 230.704 231.566 232.388 233.62 233.78L232.47 239.26C233.08 239.62 233.72 239.96 234.37 240.26L237.99 236.16C239.125 236.629 240.291 237.02 241.48 237.33C242.656 237.632 243.852 237.846 245.06 237.97L246.86 243.46H249L250 237.93C252.352 237.671 254.645 237.029 256.79 236.03L261.05 240.03C261.62 239.71 262.2 239.35 262.77 238.97L260.77 233.53C262.609 232.098 264.195 230.368 265.46 228.41L271.04 229.98C271.371 229.391 271.668 228.783 271.93 228.16L267.55 224.25C267.933 223.192 268.231 222.105 268.44 221Z"
            fill="#0BCEAF" />
        <g opacity="0.2">
            <path
                d="M268.44 221C268.661 219.829 268.789 218.642 268.82 217.45L274.21 216.04C274.233 215.344 274.187 214.647 274.07 213.96L268.44 212.61C268.001 210.196 267.199 207.863 266.06 205.69L269.83 201.69C269.46 201.08 269.07 200.49 268.66 199.89L263.31 201.46C261.747 199.533 259.907 197.848 257.85 196.46L259 190.99C258.39 190.61 257.76 190.28 257.12 189.99L253.49 194C252.359 193.521 251.192 193.129 250 192.83C248.82 192.513 247.616 192.296 246.4 192.18L244.61 186.69H242.53L241.53 192.22C239.178 192.48 236.885 193.122 234.74 194.12L230.49 190.12C229.9 190.424 229.326 190.758 228.77 191.12L230.77 196.58C228.929 198.002 227.343 199.726 226.08 201.68L220.49 200.11C220.18 200.69 219.88 201.3 219.6 201.91L223.98 205.84C223.573 206.949 223.258 208.089 223.04 209.25C222.831 210.417 222.7 211.596 222.65 212.78L217.25 214.21C217.264 214.906 217.317 215.6 217.41 216.29L223.03 217.63C223.472 220.044 224.278 222.377 225.42 224.55L221.65 228.55C222.01 229.16 222.4 229.77 222.82 230.35L228.16 228.78C229.726 230.704 231.566 232.388 233.62 233.78L232.47 239.26C233.08 239.62 233.72 239.96 234.37 240.26L237.99 236.16C239.125 236.629 240.291 237.02 241.48 237.33C242.656 237.632 243.852 237.846 245.06 237.97L246.86 243.46H249L250 237.93C252.352 237.671 254.645 237.029 256.79 236.03L261.05 240.03C261.62 239.71 262.2 239.35 262.77 238.97L260.77 233.53C262.609 232.098 264.195 230.368 265.46 228.41L271.04 229.98C271.371 229.391 271.668 228.783 271.93 228.16L267.55 224.25C267.933 223.192 268.231 222.105 268.44 221Z"
                fill="white" />
        </g>
        <g opacity="0.3">
            <path
                d="M256.615 225.661C262.02 220.064 261.536 210.826 255.533 205.029C249.53 199.233 240.282 199.071 234.876 204.669C229.471 210.266 229.955 219.503 235.958 225.3C241.961 231.097 251.209 231.259 256.615 225.661Z"
                fill="black" />
        </g>
        <path
            d="M218.05 188.15L212.51 188.25C211.706 186.741 210.776 185.302 209.73 183.95L212.24 179.25C210.647 177.437 208.882 175.782 206.97 174.31L202.41 177.17C200.994 176.222 199.503 175.392 197.95 174.69L197.65 169.13C195.428 168.296 193.126 167.693 190.78 167.33L188.42 172.18C187.59 172.18 186.76 172.07 185.94 172.07C185.112 172.052 184.283 172.088 183.46 172.18L180.46 167.33C178.195 167.688 175.975 168.292 173.84 169.13L174.33 174.69C172.881 175.39 171.499 176.22 170.2 177.17L165.2 174.17C163.496 175.643 161.961 177.3 160.62 179.11L163.75 183.81C162.876 185.166 162.143 186.606 161.56 188.11L156 188C155.313 190.188 154.867 192.445 154.67 194.73L159.67 197.44V200C159.703 200.832 159.796 201.661 159.95 202.48L155.26 205.17C155.789 207.487 156.549 209.745 157.53 211.91L163.08 211.82C163.88 213.331 164.811 214.77 165.86 216.12L163.35 220.81C164.94 222.644 166.705 224.318 168.62 225.81L173.18 222.94C174.593 223.895 176.085 224.728 177.64 225.43L177.94 230.98C180.194 231.897 182.541 232.568 184.94 232.98L187.3 228.13C188.12 228.13 188.87 228.24 189.79 228.24C190.615 228.261 191.44 228.224 192.26 228.13L195.26 232.98C197.526 232.623 199.746 232.019 201.88 231.18L201.4 225.62C202.845 224.924 204.221 224.093 205.51 223.14L210.51 226C212.22 224.527 213.763 222.87 215.11 221.06L211.98 216.36C212.85 215.002 213.583 213.562 214.17 212.06L219.72 212.16C220.405 209.968 220.851 207.708 221.05 205.42L216.05 202.73V200.24C216.023 199.41 215.93 198.584 215.77 197.77L220.46 195.06C219.902 192.678 219.094 190.362 218.05 188.15Z"
            fill="#0BCEAF" />
        <g opacity="0.3">
            <path
                d="M218.05 188.15L212.51 188.25C211.706 186.741 210.776 185.302 209.73 183.95L212.24 179.25C210.647 177.437 208.882 175.782 206.97 174.31L202.41 177.17C200.994 176.222 199.503 175.392 197.95 174.69L197.65 169.13C195.428 168.296 193.126 167.693 190.78 167.33L188.42 172.18C187.59 172.18 186.76 172.07 185.94 172.07C185.112 172.052 184.283 172.088 183.46 172.18L180.46 167.33C178.195 167.688 175.975 168.292 173.84 169.13L174.33 174.69C172.881 175.39 171.499 176.22 170.2 177.17L165.2 174.17C163.496 175.643 161.961 177.3 160.62 179.11L163.75 183.81C162.876 185.166 162.143 186.606 161.56 188.11L156 188C155.313 190.188 154.867 192.445 154.67 194.73L159.67 197.44V200C159.703 200.832 159.796 201.661 159.95 202.48L155.26 205.17C155.789 207.487 156.549 209.745 157.53 211.91L163.08 211.82C163.88 213.331 164.811 214.77 165.86 216.12L163.35 220.81C164.94 222.644 166.705 224.318 168.62 225.81L173.18 222.94C174.593 223.895 176.085 224.728 177.64 225.43L177.94 230.98C180.194 231.897 182.541 232.568 184.94 232.98L187.3 228.13C188.12 228.13 188.87 228.24 189.79 228.24C190.615 228.261 191.44 228.224 192.26 228.13L195.26 232.98C197.526 232.623 199.746 232.019 201.88 231.18L201.4 225.62C202.845 224.924 204.221 224.093 205.51 223.14L210.51 226C212.22 224.527 213.763 222.87 215.11 221.06L211.98 216.36C212.85 215.002 213.583 213.562 214.17 212.06L219.72 212.16C220.405 209.968 220.851 207.708 221.05 205.42L216.05 202.73V200.24C216.023 199.41 215.93 198.584 215.77 197.77L220.46 195.06C219.902 192.678 219.094 190.362 218.05 188.15Z"
                fill="white" />
        </g>
        <g opacity="0.4">
            <path
                d="M210.73 200.06C211.216 205.604 209.481 211.113 205.907 215.379C202.334 219.644 197.213 222.317 191.67 222.81C190.949 222.877 190.224 222.903 189.5 222.89C183.318 222.806 177.388 220.42 172.871 216.198C168.353 211.977 165.572 206.223 165.07 200.06C164.585 194.513 166.322 189.001 169.9 184.735C173.478 180.468 178.603 177.798 184.15 177.31C184.865 177.247 185.583 177.223 186.3 177.24C192.481 177.324 198.409 179.708 202.926 183.928C207.443 188.147 210.226 193.899 210.73 200.06Z"
                fill="black" />
        </g>
        <path
            d="M192.38 200.06C192.44 200.613 192.39 201.172 192.233 201.706C192.076 202.239 191.816 202.737 191.466 203.17C191.117 203.603 190.686 203.962 190.198 204.228C189.709 204.494 189.173 204.661 188.62 204.72C188.44 204.73 188.26 204.73 188.08 204.72C186.816 204.707 185.604 204.216 184.688 203.346C183.771 202.476 183.218 201.291 183.14 200.03C183.091 199.474 183.152 198.913 183.32 198.38C183.488 197.847 183.759 197.353 184.119 196.926C184.479 196.498 184.919 196.146 185.415 195.889C185.911 195.633 186.453 195.477 187.01 195.43C187.153 195.42 187.297 195.42 187.44 195.43C188.694 195.442 189.898 195.924 190.813 196.782C191.728 197.639 192.287 198.809 192.38 200.06Z"
            fill="#2F2E41" />
        <path
            d="M250.36 215.15C250.481 216.268 250.152 217.388 249.447 218.264C248.742 219.139 247.718 219.699 246.6 219.82C246.42 219.835 246.24 219.835 246.06 219.82C244.796 219.807 243.584 219.316 242.668 218.446C241.751 217.576 241.198 216.391 241.12 215.13C241.062 214.574 241.114 214.013 241.273 213.477C241.432 212.942 241.695 212.443 242.047 212.009C242.399 211.576 242.833 211.216 243.324 210.95C243.816 210.684 244.354 210.517 244.91 210.46C245.08 210.445 245.25 210.445 245.42 210.46C246.684 210.473 247.896 210.964 248.812 211.834C249.729 212.704 250.282 213.889 250.36 215.15Z"
            fill="#2F2E41" />
        <g opacity="0.2">
            <path
                d="M244.06 479.3H184.62L233.62 79.3H281.51C283.567 79.2892 285.604 79.6998 287.495 80.5064C289.387 81.313 291.094 82.4986 292.51 83.99L244.06 479.3Z"
                fill="white" />
        </g>
        <g opacity="0.2">
            <path d="M168.23 479.3H154.84L203.91 79.28H217.3L168.23 479.3Z" fill="white" />
        </g>
        <path d="M290.82 125.76H275.73V127.32H290.82V125.76Z" fill="#2F2E41" />
        <path d="M291.12 130.23H276.03V131.79H291.12V130.23Z" fill="#2F2E41" />
        <path d="M291.43 134.69H276.34V136.25H291.43V134.69Z" fill="#2F2E41" />
        <path
            d="M285.58 472.49H269.16L268 456.07H284.43L285.58 472.49ZM270.58 470.93H283.87L282.93 457.63H269.69L270.58 470.93Z"
            fill="white" />
        <path
            d="M204 473.9L189 465.06L202.78 456.24L204 473.9ZM192 465L202.26 471L201.39 459L192 465Z"
            fill="white" />
        <path
            d="M239.15 472.49C236.943 472.458 234.826 471.606 233.213 470.099C231.599 468.593 230.604 466.54 230.42 464.34C230.338 463.339 230.454 462.331 230.761 461.374C231.068 460.418 231.561 459.531 232.211 458.765C232.861 457.999 233.656 457.368 234.55 456.909C235.443 456.45 236.419 456.172 237.42 456.09H238.11C240.319 456.122 242.437 456.976 244.051 458.484C245.664 459.993 246.659 462.048 246.84 464.25C246.928 465.244 246.819 466.246 246.519 467.198C246.219 468.15 245.734 469.034 245.092 469.798C244.45 470.563 243.664 471.193 242.778 471.653C241.892 472.114 240.925 472.394 239.93 472.48C239.671 472.503 239.41 472.507 239.15 472.49ZM238.15 457.63C237.3 457.614 236.457 457.779 235.676 458.113C234.895 458.448 234.194 458.945 233.619 459.57C233.044 460.196 232.609 460.937 232.342 461.744C232.075 462.551 231.982 463.405 232.07 464.25C232.219 466.055 233.035 467.741 234.358 468.977C235.682 470.214 237.419 470.914 239.23 470.94C240.029 470.952 240.822 470.806 241.564 470.511C242.307 470.215 242.983 469.776 243.556 469.219C244.128 468.661 244.585 467.997 244.899 467.262C245.214 466.528 245.381 465.739 245.39 464.94C245.39 464.74 245.39 464.54 245.39 464.34C245.25 462.522 244.434 460.823 243.103 459.577C241.772 458.332 240.023 457.63 238.2 457.61L238.15 457.63Z"
            fill="white" />
        <path
            d="M110.59 178.42C110.392 178.423 110.201 178.35 110.056 178.216C109.911 178.082 109.823 177.897 109.81 177.7L106 125.82C105.992 125.718 106.004 125.615 106.036 125.517C106.068 125.419 106.119 125.329 106.186 125.251C106.253 125.173 106.334 125.109 106.426 125.062C106.518 125.016 106.618 124.988 106.72 124.98C106.822 124.972 106.925 124.984 107.023 125.016C107.121 125.048 107.211 125.099 107.289 125.166C107.367 125.233 107.431 125.314 107.478 125.406C107.524 125.498 107.552 125.598 107.56 125.7L111.43 177.6C111.438 177.803 111.368 178.002 111.234 178.154C111.1 178.307 110.912 178.402 110.71 178.42H110.59Z"
            fill="#0BCEAF" />
        <path
            d="M106.06 116.59C105.863 116.593 105.672 116.522 105.525 116.39C105.379 116.259 105.288 116.076 105.27 115.88L104.27 102.25C104.274 102.053 104.351 101.864 104.487 101.72C104.623 101.577 104.808 101.49 105.005 101.476C105.202 101.463 105.397 101.523 105.551 101.646C105.706 101.769 105.809 101.945 105.84 102.14L106.84 115.83C106.848 115.932 106.836 116.036 106.804 116.133C106.772 116.231 106.722 116.322 106.655 116.4C106.588 116.478 106.506 116.542 106.414 116.588C106.323 116.635 106.223 116.662 106.12 116.67L106.06 116.59Z"
            fill="#0BCEAF" />
        <path
            d="M150.66 134L151.02 133C151.707 133.479 152.522 133.741 153.36 133.75C154.42 133.75 154.92 133.37 154.81 132.86C154.7 131.29 150.7 132.34 150.51 129.73C150.51 128.63 151.26 127.73 153.14 127.73C153.957 127.721 154.762 127.932 155.47 128.34L155.14 129.34C154.549 129 153.882 128.811 153.2 128.79C152.14 128.79 151.74 129.2 151.78 129.73C151.87 131.19 155.87 130.23 156.06 132.73C156.06 133.84 155.31 134.78 153.42 134.78C152.44 134.827 151.471 134.553 150.66 134Z"
            fill="#2F2E41" />
        <path
            d="M160.11 132.31L160.28 134.74H159L158.83 132.33L155.83 127.87H157.19L159.44 131.22L161.24 127.87H162.49L160.11 132.31Z"
            fill="#2F2E41" />
        <path
            d="M163.05 134L163.43 133C164.106 133.479 164.912 133.74 165.74 133.75C166.82 133.75 167.31 133.37 167.21 132.86C167.1 131.29 163.1 132.34 162.91 129.73C162.91 128.63 163.65 127.73 165.54 127.73C166.356 127.729 167.159 127.939 167.87 128.34L167.53 129.34C166.946 128.991 166.28 128.801 165.6 128.79C164.54 128.79 164.13 129.2 164.18 129.73C164.27 131.19 168.28 130.23 168.46 132.73C168.46 133.84 167.71 134.78 165.82 134.78C164.838 134.817 163.869 134.544 163.05 134Z"
            fill="#2F2E41" />
        <path d="M170.72 129H168.45V127.92H174.28V129H172L172.41 134.79H171.13L170.72 129Z"
            fill="#2F2E41" />
        <path
            d="M180.71 133.66L180.79 134.74H175.64L175.16 127.87H180.26V128.94H176.52L176.64 130.72H180V131.77H176.68L176.83 133.66H180.71Z"
            fill="#2F2E41" />
        <path
            d="M188.53 134.74L188.2 130.19L186.2 133.94H185.64L183.12 130.23L183.43 134.74H182.21L181.74 127.87H182.74L185.79 132.42L188.14 127.87H189.2L189.69 134.74H188.53Z"
            fill="#2F2E41" />
        <path
            d="M194 131.74L193.73 127.87H195L195.26 131.69C195.37 133.11 196.05 133.69 197.16 133.69C198.27 133.69 198.85 133.09 198.72 131.69L198.46 127.87H199.71L199.97 131.74C200.046 132.068 200.056 132.407 200 132.739C199.945 133.07 199.824 133.388 199.646 133.673C199.468 133.958 199.235 134.205 198.961 134.4C198.687 134.595 198.378 134.735 198.05 134.81C197.769 134.882 197.477 134.899 197.19 134.86C196.792 134.886 196.393 134.832 196.016 134.701C195.639 134.571 195.291 134.366 194.994 134.1C194.697 133.834 194.456 133.511 194.286 133.15C194.115 132.79 194.018 132.399 194 132C193.991 131.914 193.991 131.826 194 131.74Z"
            fill="#2F2E41" />
        <path
            d="M207.49 130.31C207.6 131.88 206.49 132.75 204.74 132.75H203.17L203.31 134.75H202L201.53 127.88H204.35C206.21 127.87 207.38 128.84 207.49 130.31ZM206.21 130.31C206.21 129.45 205.53 128.95 204.41 128.95H202.92L203.11 131.67H204.6C205.72 131.67 206.27 131.17 206.21 130.31Z"
            fill="#2F2E41" />
        <path
            d="M208.6 127.87H211.54C212.024 127.826 212.513 127.879 212.977 128.025C213.441 128.171 213.871 128.407 214.243 128.721C214.615 129.034 214.921 129.418 215.144 129.85C215.366 130.283 215.501 130.755 215.54 131.24V131.3C215.627 132.124 215.385 132.949 214.866 133.596C214.347 134.242 213.594 134.657 212.77 134.75C212.524 134.775 212.276 134.775 212.03 134.75H209.03L208.6 127.87ZM211.95 133.66C212.509 133.725 213.072 133.566 213.514 133.217C213.956 132.869 214.242 132.359 214.31 131.8C214.33 131.634 214.33 131.466 214.31 131.3C214.274 130.641 213.978 130.023 213.486 129.583C212.995 129.142 212.349 128.915 211.69 128.95H210L210.32 133.64L211.95 133.66Z"
            fill="#2F2E41" />
        <path
            d="M221.43 133.14H218L217.44 134.71H216.12L218.73 127.84H220L223.58 134.71H222.23L221.43 133.14ZM220.94 132.14L219.38 129.14L218.3 132.14H220.94Z"
            fill="#2F2E41" />
        <path
            d="M225.09 129H222.82L222.74 127.92H228.56L228.64 129H226.37L226.76 134.79H225.49L225.09 129Z"
            fill="#2F2E41" />
        <path
            d="M235.08 133.66V134.74H229.93L229.45 127.87H234.45L234.53 128.94H230.79L230.92 130.72H234.24L234.31 131.77H231L231.12 133.66H235.08Z"
            fill="#2F2E41" />
        <path
            d="M133.59 136.51L128.09 131.02L133.59 125.53L134.69 126.62L130.3 131.02L134.69 135.4L133.59 136.51Z"
            fill="#2F2E41" />
        <path d="M145.57 130.23H129.21V131.79H145.57V130.23Z" fill="#2F2E41" />
        <path
            d="M249.08 98.59C249.138 99.0097 249.112 99.4366 249.005 99.8463C248.897 100.256 248.71 100.641 248.453 100.978C248.197 101.315 247.876 101.598 247.51 101.811C247.144 102.025 246.74 102.163 246.32 102.22C246.167 102.23 246.013 102.23 245.86 102.22C244.885 102.201 243.951 101.827 243.233 101.167C242.515 100.508 242.062 99.6095 241.96 98.64C241.87 97.7861 242.123 96.9316 242.663 96.2641C243.203 95.5966 243.986 95.1707 244.84 95.08C244.97 95.07 245.1 95.07 245.23 95.08C246.185 95.1087 247.099 95.4784 247.805 96.1223C248.511 96.7661 248.963 97.6415 249.08 98.59Z"
            fill="white" />
        <path
            d="M250.55 96.73C250.369 96.7259 250.195 96.6554 250.063 96.5319C249.93 96.4084 249.847 96.2405 249.83 96.06C249.67 94.42 247.59 93.15 245.14 93.15C242.69 93.15 240.8 95.09 240.9 96.06C240.914 96.2214 240.864 96.3819 240.762 96.5071C240.659 96.6323 240.511 96.7123 240.35 96.73H240.29C240.107 96.7265 239.931 96.6567 239.795 96.5335C239.659 96.4104 239.572 96.2422 239.55 96.06C239.4 94.15 241.88 91.82 245.01 91.82C248.14 91.82 251.01 93.68 251.27 96.06C251.287 96.22 251.241 96.3803 251.143 96.5072C251.044 96.6341 250.899 96.7176 250.74 96.74L250.55 96.73Z"
            fill="white" />
        <path
            d="M251.68 93.63C251.496 93.6286 251.319 93.5595 251.182 93.436C251.046 93.3124 250.96 93.143 250.94 92.96C250.8 91.4 248.02 90.05 244.68 90.05C241.34 90.05 238.9 92.1 239 93C239.013 93.0778 239.009 93.1573 238.99 93.2338C238.971 93.3102 238.937 93.382 238.889 93.4447C238.841 93.5074 238.781 93.5597 238.713 93.5984C238.644 93.6372 238.568 93.6615 238.49 93.67H238.39C238.209 93.6659 238.035 93.5954 237.903 93.4719C237.77 93.3484 237.687 93.1805 237.67 93C237.5 91.09 240.67 88.76 244.6 88.76C248.53 88.76 252 90.55 252.24 93C252.26 93.1563 252.218 93.3141 252.122 93.4395C252.027 93.5648 251.886 93.6476 251.73 93.67L251.68 93.63Z"
            fill="white" />
        <path
            d="M252.8 90.54C252.619 90.5365 252.446 90.4678 252.312 90.3465C252.178 90.2252 252.092 90.0595 252.07 89.88C251.96 88.47 248.83 86.96 244.37 86.96C239.91 86.96 237.11 89.13 237.18 89.88C237.194 90.0361 237.147 90.1915 237.047 90.313C236.948 90.4345 236.806 90.5123 236.65 90.53H236.57C236.39 90.5262 236.218 90.4571 236.086 90.3357C235.953 90.2142 235.869 90.0487 235.85 89.87C235.69 87.96 239.52 85.62 244.26 85.62C249.34 85.62 253.19 87.4 253.4 89.87C253.414 90.0261 253.367 90.1815 253.267 90.303C253.168 90.4245 253.026 90.5023 252.87 90.52L252.8 90.54Z"
            fill="white" />
        <path d="M260.4 102.17H258.29L257.76 96.06H259.87L260.4 102.17Z" fill="white" />
        <path d="M263.3 102.17H261.19L260.43 93.62H262.55L263.3 102.17Z" fill="white" />
        <path d="M266.19 102.17H264.08L263.12 91.18H265.24L266.19 102.17Z" fill="white" />
        <path d="M269.08 102.17H266.99L265.8 88.74H267.91L269.08 102.17Z" fill="white" />
        <path d="M271.99 102.17H269.88L268.49 86.3H270.6L271.99 102.17Z" fill="white" />
        <path d="M287.84 102.17H279.94L278.7 88.08H286.6L287.84 102.17Z" fill="white" />
        <path d="M285.15 88.08H280.17L280.08 87.05H285.05L285.15 88.08Z" fill="white" />
        <path
            d="M516.88 565.25C516.88 565.25 625 584.47 697.75 555C697.75 555 864 389 776.22 270.89C776.22 270.89 727.16 184.99 631.28 210.05L479.18 484.05L516.88 565.25Z"
            fill="#0BCEAF" />
        <g opacity="0.7">
            <path
                d="M516.88 565.25C516.88 565.25 625 584.47 697.75 555C697.75 555 864 389 776.22 270.89C776.22 270.89 727.16 184.99 631.28 210.05L479.18 484.05L516.88 565.25Z"
                fill="white" />
        </g>
        <g opacity="0.2">
            <path
                d="M532.39 440.16C532.39 440.16 572.95 461.49 621.49 462.3C680.32 463.3 732.17 423.75 747.35 366.9C759.46 321.57 767.7 252.61 711.58 238.73C626.5 217.69 613 337 613 337C613 337 533.93 401.64 532.42 413.37C530.91 425.1 532.39 440.16 532.39 440.16Z"
                fill="white" />
        </g>
        <path
            d="M539.91 589.58C539.91 589.58 546.22 602.81 526.68 610.58L503.53 617.8C503.53 617.8 491.21 621.4 481.58 627.42C481.58 627.42 432.36 657.51 433.07 628.79L539.91 589.58Z"
            fill="#E1E1E2" />
        <path
            d="M517.66 558.62L518.03 558.1C518.168 557.907 518.347 557.747 518.554 557.631C518.762 557.516 518.992 557.449 519.229 557.435C519.466 557.42 519.703 557.459 519.923 557.548C520.143 557.637 520.34 557.775 520.5 557.95C524.5 562.4 536.43 576.4 539.91 589.58C539.91 589.58 539.61 599.51 508.04 608.83C499.631 611.22 491.555 614.653 484 619.05C484 619.05 435.6 645.81 432.59 627.17C432.59 627.17 426 614.38 457.4 596.72C457.4 596.72 468.46 588.23 475.18 575.83L502.34 565.83L517.66 558.62Z"
            fill="#0BCEAF" />
        <path
            d="M457.42 603.36C457.206 605.838 456.662 608.277 455.8 610.61C453.889 615.794 450.512 620.311 446.08 623.61C435.47 631.51 415.8 642.5 392.29 638.32C392.29 638.32 372.15 637.42 362.83 622.38C362.83 622.38 359.23 617.59 365.72 612.88C367.62 611.579 369.68 610.53 371.85 609.76L386.09 603.2C388.31 602.2 390.56 601.2 392.86 600.4C398.953 598.241 404.081 593.989 407.33 588.4C407.33 588.4 414.18 573.94 420.98 578.77L456.44 593.9C456.44 593.9 458 596.66 457.42 603.36Z"
            fill="#0BCEAF" />
        <g opacity="0.2">
            <path
                d="M457.42 603.36C457.206 605.838 456.662 608.277 455.8 610.61C453.889 615.794 450.512 620.311 446.08 623.61C435.47 631.51 415.8 642.5 392.29 638.32C392.29 638.32 372.15 637.42 362.83 622.38C362.83 622.38 359.23 617.59 365.72 612.88C367.62 611.579 369.68 610.53 371.85 609.76L386.09 603.2C388.31 602.2 390.56 601.2 392.86 600.4C398.953 598.241 404.081 593.989 407.33 588.4C407.33 588.4 414.18 573.94 420.98 578.77L456.44 593.9C456.44 593.9 458 596.66 457.42 603.36Z"
                fill="black" />
        </g>
        <path
            d="M416.35 643.67C383.95 649.75 368.64 638.1 363.35 632.43C361.589 630.559 360.255 628.327 359.44 625.89C356.1 615.68 365.67 612.89 365.67 612.89H365.76C359.27 617.6 362.87 622.39 362.87 622.39C372.19 637.39 392.33 638.33 392.33 638.33C415.84 642.51 435.51 631.52 446.12 623.62C450.552 620.321 453.929 615.804 455.84 610.62H456C457.86 626.19 434.91 637.17 425 641.16C422.207 642.28 419.309 643.121 416.35 643.67Z"
            fill="#E1E1E2" />
        <path
            d="M473.17 566.13L475.17 575.83C475.17 575.83 500.83 580.83 517.66 558.62L510.45 547.8L473.17 566.13Z"
            fill="#F9B499" />
        <path
            d="M492.09 354.12C492.09 354.12 393.5 346.66 398.31 387C398.31 387 396.5 398.42 412.44 438.11L466 569.74C466 569.74 501.78 571.25 514.1 548.74L467.5 415.25C472.043 415.771 476.551 416.562 481 417.62L492.09 354.12Z"
            fill="#2F2E41" />
        <g opacity="0.2">
            <path
                d="M467.45 415.21C467.45 415.21 446.45 404.69 434.08 390.56L504.28 559.41C508.365 556.694 511.72 553.016 514.05 548.7L467.45 415.21Z"
                fill="black" />
        </g>
        <path
            d="M555.54 300.36L518.86 290.14C518.86 290.14 530.86 221.9 603.95 208.07L683.95 212.88C683.95 212.88 736.86 224.88 741.67 279.02C741.67 279.02 743.18 303.07 738.97 323.81C738.97 323.81 726.64 306.68 692.67 294.35C692.67 294.35 679.74 384.85 670.42 406.79C670.42 406.79 628.18 370.57 545.65 352.68L541.14 337.34C541.14 337.34 545.32 331 555.54 300.36Z"
            fill="#0BCEAF" />
        <g opacity="0.4">
            <path
                d="M555.54 300.36L545.43 297.64C545.43 297.64 559.75 272.1 559.75 257.37C559.75 257.37 560.65 279 555.54 300.36Z"
                fill="black" />
        </g>
        <path
            d="M692.64 294.35L690 311.57C690 311.57 656.13 284.5 644.29 276.44C642.292 275.072 640.752 273.135 639.87 270.88C636.76 262.88 628.77 244.39 620.78 242.04C620.78 242.04 578.69 224.04 578.09 230.31C578.09 230.31 575.39 232.12 598.84 242.94C598.84 242.94 595.53 244.44 596.73 250.16C596.73 250.16 591.32 251.96 594.33 258.27C594.33 258.27 588.8 260.58 591.45 265.18C592.143 266.355 593.142 267.319 594.34 267.97L619.16 281.67C620.967 282.669 622.404 284.222 623.26 286.1C630.58 302.28 668.49 380.94 707.37 367.71C707.37 367.71 720.6 359.29 738.94 323.81C738.94 323.81 723.9 304.57 692.64 294.35Z"
            fill="#F9B499" />
        <path
            d="M692.64 294.35C692.64 294.35 722.1 303.35 738.94 323.81C738.94 323.81 707.67 302.38 707.67 314.81C707.67 315.41 709.77 339.76 709.77 339.76C709.77 339.76 703.61 318 690 311.57L692.64 294.35Z"
            fill="#F7A48B" />
        <g opacity="0.4">
            <path
                d="M699.55 257.37L692.64 294.37L690 311.57L682.45 305.47C682.45 305.47 692.64 267.29 699.55 257.37Z"
                fill="black" />
        </g>
        <g opacity="0.2">
            <path
                d="M692.64 294.35L695.01 282.65C695.01 282.65 726.39 282.65 741.53 303.09C741.53 303.09 740.44 317.5 738.94 323.81C738.94 323.81 726 305.78 692.64 294.35Z"
                fill="white" />
        </g>
        <g opacity="0.2">
            <path
                d="M518.86 290.14C518.86 290.14 520.68 280.59 523.38 275.45L552.27 283.64C552.27 283.64 547.64 294.64 545.43 297.64L518.86 290.14Z"
                fill="white" />
        </g>
        <path
            d="M490.81 257.73C493.38 269.42 499.96 298.21 506.28 315.51C507.582 319.113 509.651 322.389 512.344 325.113C515.037 327.837 518.29 329.944 521.877 331.287C525.464 332.629 529.301 333.177 533.121 332.891C536.94 332.605 540.653 331.492 544 329.63L544.7 329.23C544.7 329.23 549.51 320.23 555.52 300.36L526.82 292.61L509.71 242.83C509.273 241.518 509.348 240.089 509.92 238.83C511.64 234.97 513.92 224.73 501.71 208.11C500.388 203.889 499.576 199.524 499.29 195.11C499.284 194.863 499.22 194.621 499.103 194.403C498.987 194.185 498.82 193.997 498.618 193.855C498.416 193.713 498.183 193.621 497.939 193.585C497.694 193.55 497.444 193.572 497.21 193.65C494.76 194.45 491.42 197.65 494.49 209.96C494.49 209.96 497.2 221.08 489.38 214.77L484.79 211.77C482.652 210.371 480.738 208.659 479.11 206.69L464.81 189.39C464.279 188.736 463.542 188.282 462.719 188.1C461.897 187.919 461.037 188.021 460.28 188.39C459.793 188.633 459.366 188.98 459.028 189.406C458.69 189.832 458.45 190.328 458.324 190.857C458.198 191.386 458.19 191.936 458.3 192.469C458.41 193.002 458.635 193.504 458.96 193.94L470.85 209.94C470.927 210.05 470.964 210.184 470.953 210.318C470.943 210.452 470.886 210.579 470.793 210.676C470.699 210.772 470.575 210.834 470.442 210.849C470.308 210.865 470.173 210.833 470.06 210.76L449.35 196.88C448.98 196.631 448.561 196.464 448.121 196.39C447.681 196.315 447.23 196.335 446.799 196.449C446.367 196.563 445.965 196.767 445.619 197.048C445.272 197.329 444.99 197.681 444.79 198.08C444.474 198.711 444.38 199.431 444.524 200.122C444.667 200.813 445.039 201.436 445.58 201.89L464.51 217.79C464.547 217.817 464.572 217.857 464.58 217.902C464.587 217.947 464.576 217.993 464.55 218.03C464.523 218.067 464.483 218.092 464.438 218.1C464.393 218.107 464.347 218.097 464.31 218.07L448.49 208.38C448.182 208.191 447.839 208.067 447.481 208.015C447.123 207.963 446.759 207.984 446.41 208.078C446.061 208.171 445.735 208.335 445.451 208.559C445.167 208.783 444.932 209.062 444.76 209.38C444.46 209.943 444.373 210.596 444.515 211.218C444.656 211.841 445.016 212.391 445.53 212.77L465.66 227.6C465.926 227.796 466.138 228.057 466.275 228.358C466.411 228.659 466.468 228.991 466.44 229.32C466.416 229.617 466.324 229.905 466.171 230.16C466.018 230.416 465.808 230.633 465.558 230.795C465.307 230.956 465.023 231.058 464.727 231.092C464.43 231.126 464.13 231.091 463.85 230.99L449.54 225.85C449.21 225.732 448.86 225.681 448.51 225.701C448.16 225.722 447.818 225.813 447.504 225.969C447.19 226.125 446.911 226.343 446.684 226.609C446.456 226.876 446.285 227.186 446.18 227.52C445.989 228.129 446.031 228.787 446.297 229.367C446.563 229.946 447.034 230.407 447.62 230.66C453.62 233.31 471.38 241.29 484.92 249.55C486.403 250.446 487.689 251.632 488.701 253.038C489.713 254.444 490.431 256.04 490.81 257.73Z"
            fill="#F9B499" />
        <path
            d="M490.3 236.13C482.3 230.13 476.45 235.27 476.21 235.5L475.54 234.75C475.6 234.69 482.26 228.84 490.9 235.33L490.3 236.13Z"
            fill="#F7A48B" />
        <path
            d="M501.6 238.92C487.28 235.26 486.21 217.92 486.2 217.71L487.2 217.66C487.2 217.83 488.26 234.47 501.86 237.95L501.6 238.92Z"
            fill="#F7A48B" />
        <path
            d="M670.39 406.79C670.39 406.79 662.27 491.27 543.22 428.44C543.22 428.44 549.83 464.52 510.15 525.25L467.45 584.47C461.333 584.802 455.199 584.514 449.14 583.61C440.97 582.4 431.6 579.77 424.46 574.25C424.46 574.25 466.74 494.25 471.66 420.61C471.84 417.82 471.92 415.03 471.92 412.23C471.87 400.29 473.58 352.41 503.83 350.57C503.83 350.57 531.49 347.27 553.44 355.98C553.44 355.98 602.21 356.6 656.11 394.62C661 398.07 665.43 402.71 670.39 406.79Z"
            fill="#2F2E41" />
        <g opacity="0.2">
            <path
                d="M670.39 406.79C670.39 406.79 662.27 491.27 543.22 428.44C543.22 428.44 549.83 464.52 510.15 525.25L467.45 584.47C461.333 584.802 455.199 584.514 449.14 583.61C462.99 571.85 492.14 537.98 517.36 448.61L525.48 413.74C525.48 413.74 527.58 402.91 541.11 409.83C541.11 409.83 648.35 460.75 655.51 394.05C660.4 397.46 665.43 402.71 670.39 406.79Z"
                fill="black" />
        </g>
        <path
            d="M424.46 574.25L420 580C420 580 435 595.94 455.48 595.34L462.69 584.51C462.69 584.51 439.49 585.68 424.46 574.25Z"
            fill="#F9B499" />
        <path
            d="M626.19 195.44V205.36C618.692 204.96 611.182 205.878 604 208.07C604 208.07 641.28 247.45 684 212.88C684 212.88 679.49 209.57 663.55 207.47L666.55 155.75L626.19 195.44Z"
            fill="#F9B499" />
        <path d="M626.19 195.44V205.36C626.19 205.36 656.77 201.77 661.93 168.69L626.19 195.44Z"
            fill="#F7A48B" />
        <path
            d="M605.9 119.83C605.9 119.83 601.49 138 608 174.42C608.916 179.757 611.672 184.604 615.79 188.12C623.73 194.79 638.3 197.6 658.08 162.07L657.78 117.87C657.78 117.87 632.81 102.54 605.9 119.83Z"
            fill="#F9B499" />
        <path
            d="M655.36 160.56C655.36 160.56 655.36 128.79 648.13 120.02C655.569 121.504 662.449 125.029 668 130.2L669.21 142.2C669.21 142.2 662.62 144.97 661.7 159.2L655.36 160.56Z"
            fill="#2F2E41" />
        <g opacity="0.2">
            <path
                d="M655.36 160.56C655.36 160.56 655.36 128.79 648.13 120.02C655.569 121.504 662.449 125.029 668 130.2L669.21 142.2C669.21 142.2 662.62 144.97 661.7 159.2L655.36 160.56Z"
                fill="white" />
        </g>
        <path
            d="M606.72 167.24C606.72 167.24 612.59 188.35 616.5 183.37C616.707 183.105 616.875 182.812 617 182.5C617.49 181.32 619.42 177.28 622.28 178.64C622.698 178.847 623.068 179.14 623.364 179.501C623.661 179.861 623.877 180.28 624 180.73C624.73 183.17 627.67 189.05 638.22 180.73C638.22 180.73 652.05 173.81 655.36 160.58L661.68 159.27C661.68 159.27 662.04 161.47 665.46 162.83C665.46 162.83 645.46 201.24 618.75 196.24C616.832 195.891 615.039 195.048 613.546 193.794C612.054 192.54 610.914 190.919 610.24 189.09C608.77 185.08 607.29 178.38 606.72 167.24Z"
            fill="#2F2E41" />
        <path
            d="M676.431 153.605C678.239 147.298 676.274 141.202 672.042 139.989C667.811 138.777 662.916 142.907 661.108 149.214C659.301 155.522 661.266 161.618 665.497 162.83C669.729 164.043 674.624 159.913 676.431 153.605Z"
            fill="#F9B499" />
        <path
            d="M668 130.2C668 130.2 645.61 107.8 603.67 124.79C603.67 124.79 592.24 130.2 586.23 121.79L591.94 120.89C591.94 120.89 586.51 117 585 106.75C585 106.75 585.3 107.65 589.51 110.06C588.137 104.159 588.555 97.9825 590.71 92.32C590.71 92.32 592.51 105.55 607.24 102.54C607.24 102.54 603.03 97.13 608.45 91.72C608.45 91.72 608.45 99.53 622.58 97.72C622.59 97.73 666.78 89.91 668 130.2Z"
            fill="#2F2E41" />
        <g opacity="0.2">
            <path
                d="M593.17 121.66C592.08 121.66 591.68 121.36 591.55 121.21C591.502 121.165 591.464 121.111 591.438 121.051C591.412 120.99 591.398 120.926 591.398 120.86C591.398 120.794 591.412 120.729 591.438 120.669C591.464 120.609 591.502 120.555 591.55 120.51C591.642 120.427 591.761 120.381 591.885 120.381C592.009 120.381 592.128 120.427 592.22 120.51C592.36 120.59 595.16 121.98 609.95 114.06C617.394 110.031 625.823 108.184 634.27 108.73C644.226 109.492 653.739 113.161 661.63 119.28C661.683 119.319 661.727 119.369 661.76 119.425C661.794 119.482 661.816 119.544 661.825 119.609C661.834 119.674 661.831 119.74 661.814 119.804C661.798 119.868 661.769 119.927 661.73 119.98C661.649 120.084 661.531 120.152 661.4 120.171C661.27 120.19 661.137 120.157 661.03 120.08C653.293 114.077 643.964 110.475 634.2 109.72C625.943 109.187 617.704 110.997 610.43 114.94C600 120.53 595.29 121.66 593.17 121.66Z"
                fill="black" />
        </g>
        <g opacity="0.2">
            <path
                d="M594.89 113.05C589.89 113.05 589.08 110.34 589.03 110.19C588.994 110.057 589.013 109.916 589.081 109.797C589.149 109.678 589.262 109.591 589.395 109.555C589.528 109.519 589.669 109.538 589.788 109.606C589.907 109.674 589.994 109.787 590.03 109.92C590.03 109.98 591.33 113.68 600.46 111.19C602.351 110.66 604.189 109.957 605.95 109.09C610.17 107.03 621.15 102.41 632 103.85C632.066 103.857 632.129 103.878 632.186 103.91C632.244 103.943 632.294 103.986 632.334 104.039C632.374 104.091 632.403 104.151 632.42 104.214C632.436 104.278 632.44 104.345 632.43 104.41C632.413 104.541 632.344 104.66 632.239 104.741C632.134 104.821 632.001 104.857 631.87 104.84C621.28 103.43 610.53 107.97 606.39 109.99C604.571 110.884 602.673 111.607 600.72 112.15C598.825 112.707 596.865 113.01 594.89 113.05Z"
                fill="black" />
        </g>
        <path d="M594.508 257.781L594.09 258.689L607.469 264.851L607.887 263.943L594.508 257.781Z"
            fill="#F7A48B" />
        <path d="M596.928 249.699L596.541 250.621L610.522 256.484L610.909 255.562L596.928 249.699Z"
            fill="#F7A48B" />
        <path d="M598.73 242.478L598.343 243.4L612.324 249.263L612.71 248.34L598.73 242.478Z"
            fill="#F7A48B" />
        <g opacity="0.2">
            <path d="M389.59 272.1L420.55 350.87H551.33L523.67 271.2L389.59 272.1Z" fill="white" />
        </g>
        <path
            d="M553.44 351.77H585.61C585.886 351.77 586.159 351.824 586.414 351.93C586.668 352.035 586.9 352.19 587.095 352.385C587.29 352.58 587.445 352.812 587.55 353.066C587.656 353.321 587.71 353.594 587.71 353.87C587.71 354.427 587.489 354.961 587.095 355.355C586.701 355.749 586.167 355.97 585.61 355.97H553.44V351.76V351.77Z"
            fill="#B3B3B3" />
        <path d="M389.59 272.1L420.55 350.87H551.33L523.67 271.2L389.59 272.1Z" fill="#B3B3B3" />
        <path
            d="M389.59 272.1L392.29 268.5L525.89 269.08L556.99 355.78H420.3C419.65 355.78 419.027 355.522 418.568 355.062C418.108 354.603 417.85 353.98 417.85 353.33C417.85 352.679 418.108 352.055 418.567 351.594C419.026 351.133 419.649 350.873 420.3 350.87H551.3L523.67 271.2L389.59 272.1Z"
            fill="#E1E1E2" />
    </g>
    <defs>
        <clipPath id="clip0_102_2">
            <rect width="865.76" height="682.89" fill="white" />
        </clipPath>
    </defs>
</svg>
    